<svg xmlns="http://www.w3.org/2000/svg" width="256" height="256"><path fill-opacity=".016" d="M0 128.004v128.004l128.25-.254 128.25-.254.254-127.75L257.008 0H0v128.004m.485.496c0 70.4.119 99.053.265 63.672.146-35.38.146-92.98 0-128C.604 29.153.485 58.1.485 128.5" fill="#1976D2" fill-rule="evenodd"/><path fill-opacity=".191" d="M109.668 4.496C75.587 10.073 48.437 26.338 27.874 53.5 3.157 86.149-4.144 128.853 8.16 168.8c4.253 13.809 12.643 28.2 16.441 28.2.766 0 3.097-1.54 5.18-3.421l3.787-3.422 2.937 5.672c1.718 3.317 6.095 8.784 10.545 13.171 7.046 6.945 7.578 7.76 7.198 11.011-.696 5.944 2.033 8.164 16.493 13.415 21.442 7.787 20.538 7.23 19.792 12.201-.549 3.664-.346 4.403 1.482 5.381 3.051 1.633 6.659-1.015 7.845-5.755l1.689-6.753c.699-2.798.913-2.485 3.177 4.645l2.428 7.646 9.762 2.447 9.761 2.448 8.937-2.145c4.915-1.18 9.428-2.449 10.029-2.821.602-.371 2.15-4.331 3.441-8.798 2.547-8.814 2.85-8.73 4.899 1.356 1.386 6.826 4.365 9.677 8.05 7.704 1.89-1.011 2.085-1.713 1.52-5.48l-.648-4.32 7.797-2.952a1105.328 1105.328 0 0115.694-5.778c4.342-1.554 9.214-3.936 10.827-5.293 2.525-2.125 2.886-3.046 2.604-6.654-.311-3.977-.037-4.453 5.475-9.494 3.192-2.919 8.057-8.768 10.812-12.998l5.009-7.69 3.338 3.338c1.837 1.837 3.998 3.339 4.803 3.339 5.627 0 15.43-20.031 19.82-40.5C261.966 96.438 229.1 34.414 172.5 11.973c-18.736-7.428-44.436-10.487-62.832-7.477m16.082 1.166c.688.278 1.813.278 2.5 0 .688-.277.125-.504-1.25-.504s-1.937.227-1.25.504m19.063 16.021c.721.289 1.584.253 1.916-.079.332-.332-.258-.568-1.312-.525-1.165.048-1.402.285-.604.604m-23.563 6.052c2.612.206 6.887.206 9.5 0 2.613-.206.475-.375-4.75-.375s-7.362.169-4.75.375m-10.437.948c.721.289 1.584.253 1.916-.079.332-.332-.258-.568-1.312-.525-1.165.048-1.402.285-.604.604m31 0c.721.289 1.584.253 1.916-.079.332-.332-.258-.568-1.312-.525-1.165.048-1.402.285-.604.604m-36 1c.721.289 1.584.253 1.916-.079.332-.332-.258-.568-1.312-.525-1.165.048-1.402.285-.604.604m12.687.469c-19.798 1.436-40.951 10.359-55.183 23.281-8.952 8.128-18.533 20.015-22.622 28.067C31.79 99.04 28 114.731 28 134.066c0 13.983 1.824 23.662 6.03 31.993l3.057 6.056 1.781-2.2c1.718-2.122 1.696-2.432-.629-8.807C34.629 151.211 33 141.1 33 128.596c0-17.279 2.665-28.86 10.032-43.596 12.935-25.874 37.633-44.819 65.894-50.545 11.365-2.303 32.38-1.583 42.9 1.469 35.51 10.302 60.624 38.103 68.27 75.576 1.647 8.07 1.395 27.364-.471 36.052-.833 3.878-2.601 10.046-3.93 13.707l-2.416 6.655 2.214 2.08 2.214 2.079 2.632-6.07c4.36-10.052 5.762-18.159 5.72-33.063-.09-31.779-9.39-54.085-31.748-76.149-19.676-19.417-46.312-28.777-75.811-26.639m28.313-.469c.721.289 1.584.253 1.916-.079.332-.332-.258-.568-1.312-.525-1.165.048-1.402.285-.604.604m-50.625 2c-6.411 2.267-4.539 2.528 2.352.328 3.278-1.047 5.06-1.892 3.96-1.878-1.1.014-3.941.711-6.312 1.55m54.625-1c.721.289 1.584.253 1.916-.079.332-.332-.258-.568-1.312-.525-1.165.048-1.402.285-.604.604M158.5 33c2.749 1.181 4.328 1.181 2.5 0-.825-.533-2.175-.945-3-.914-.989.036-.819.347.5.914M88 35c-.825.533-1.05.969-.5.969s1.675-.436 2.5-.969c.825-.533 1.05-.969.5-.969s-1.675.436-2.5.969m76 0c.825.533 1.95.969 2.5.969s.325-.436-.5-.969c-.825-.533-1.95-.969-2.5-.969s-.325.436.5.969m4 1.393c0 .216.698.661 1.552.989.89.341 1.291.173.941-.393-.587-.951-2.493-1.406-2.493-.596M41.872 39.75c-1.243 1.586-1.208 1.621.378.378.962-.755 1.75-1.543 1.75-1.75 0-.823-.821-.294-2.128 1.372M217 45.378c0 .207.787.995 1.75 1.75 1.586 1.243 1.621 1.208.378-.378-1.307-1.666-2.128-2.195-2.128-1.372M61.405 52.25L59.5 54.5l2.25-1.905C63.864 50.805 64.455 50 63.655 50c-.19 0-1.202 1.013-2.25 2.25M124 81.694c-1.892.676-4 3.293-4 4.966 0 .724.649 1.028 1.5.702.825-.317 1.5-.047 1.5.601 0 2.02 4.453.678 4.855-1.463.207-1.1.887-2.338 1.511-2.75.804-.532.697-1.037-.366-1.735-1.635-1.073-2.704-1.142-5-.321m17.617 11.117c-1.208 1.954-12.65 32.489-12.304 32.835.2.2 3.157-6.813 6.571-15.585l6.207-15.949 33.704.581c18.538.319 33.915.766 34.171.993.539.477-2.023 10.535-10.012 39.314-4.873 17.556-5.982 20.544-7.721 20.806-2.727.412-67.311-8.675-69.303-9.751-1.196-.645-1.837-.139-2.691 2.122-.962 2.549-.916 2.8.32 1.774 1.172-.973 1.441-.827 1.441.779 0 1.659 1.071 2.152 6.711 3.086 5.607.929 6.977.872 8.329-.352 2.813-2.546 9.96-1.426 9.96 1.562 0 1.929-1.448 1.593 27.22 6.312 10.964 1.805 13.821 1.998 14.219.96.274-.714 1.01-1.298 1.637-1.298.626 0 .893.638.594 1.417-.535 1.395 2.103 3.143 3.156 2.091.296-.297 4.721-16.159 9.831-35.249 6.337-23.672 8.967-35.036 8.269-35.734-1.33-1.332-69.5-2.023-70.309-.714M228.272 126c0 2.475.195 3.488.434 2.25.238-1.237.238-3.263 0-4.5-.239-1.237-.434-.225-.434 2.25m-203.077-.5c.02 1.65.244 2.204.498 1.231.254-.973.237-2.323-.037-3-.274-.677-.481.119-.461 1.769m102.429 3.039c-.965 2.514-.681 3.163.498 1.136.584-1.004.851-2.036.593-2.293-.257-.258-.749.263-1.091 1.157M25.195 131.5c.02 1.65.244 2.204.498 1.231.254-.973.237-2.323-.037-3-.274-.677-.481.119-.461 1.769m99.429 5.039c-.965 2.514-.681 3.163.498 1.136.584-1.004.851-2.036.593-2.293-.257-.258-.749.263-1.091 1.157m124.455.044c.048 1.165.285 1.402.604.605.289-.722.253-1.585-.079-1.917-.332-.332-.568.258-.525 1.312m-126.455 4.956c-.965 2.514-.681 3.163.498 1.136.584-1.004.851-2.036.593-2.293-.257-.258-.749.263-1.091 1.157M26.199 149.5c0 1.1.361 3.125.801 4.5.634 1.98.801 2.084.801.5 0-1.1-.361-3.125-.801-4.5-.634-1.98-.801-2.084-.801-.5m200.88.083c.048 1.165.285 1.402.604.605.289-.722.253-1.585-.079-1.917-.332-.332-.568.258-.525 1.312m-1.303 5.917c-.35 1.65-.899 3.9-1.221 5-.321 1.1.12.485.981-1.367.861-1.852 1.41-4.102 1.22-5-.199-.944-.613-.368-.98 1.367M152 155c0 .55.45 1 1 1s1-.45 1-1-.45-1-1-1-1 .45-1 1m3 1.151c0 .65.271.911.603.58.331-.332 1.681-.193 3 .308 1.745.664 2.397.568 2.397-.351 0-.694-1.35-1.365-3-1.491-1.771-.135-3 .256-3 .954m7 .698c0 .399.9.793 2 .876 1.1.083 2-.176 2-.574 0-.399-.9-.793-2-.876-1.1-.083-2 .176-2 .574M28.086 158c-.031.825.381 2.175.914 3 1.181 1.828 1.181.249 0-2.5-.567-1.319-.878-1.489-.914-.5M186 160c0 .55.45 1 1 1s1-.45 1-1-.45-1-1-1-1 .45-1 1M8.079 161.583c.048 1.165.285 1.402.604.605.289-.722.253-1.585-.079-1.917-.332-.332-.568.258-.525 1.312m235.959 3.273c-.94 3.907-1.549 4.989-2.25 4-.704-.993-.835-.773-.488.819.338 1.554.08 2.024-.905 1.646-.758-.29-1.654.191-1.991 1.07-.338.878-1.016 1.349-1.509 1.044-.492-.304-.895.149-.895 1.006s-.675 1.559-1.5 1.559-1.5.623-1.5 1.383c0 1.833-4.768 2.68-7.662 1.361-2.151-.98-4.016-4.203-3.511-6.068.122-.454-.315-.492-.972-.086-.815.503-.992.209-.556-.926 1.123-2.928-.004-1.798-3.242 3.247-1.733 2.701-3.9 5.199-4.816 5.55-1.281.492-.637 1.219 2.797 3.16 2.454 1.387 5.7 3.698 7.212 5.137 1.512 1.439 2.75 2.223 2.75 1.742 0-.481 1.463.448 3.25 2.063l3.25 2.937-2.903-3.214c-1.597-1.768-3.253-2.999-3.681-2.734-.428.264-1.04.056-1.36-.462-.535-.865 3.036-.719 9.181.375 1.921.342 2.714-.618 5.614-6.784 4.079-8.676 7.971-20.219 7.395-21.934-.231-.686-1 1.163-1.708 4.109m-214.015-1.689c-.013.367.79 2.617 1.784 5 2.257 5.409 1.947 6.805-2.089 9.41-2.552 1.647-3.889 1.901-6.459 1.224-1.783-.47-3.133-1.404-3-2.077.132-.673-.547-1.161-1.509-1.085-1.098.087-1.75-.565-1.75-1.75 0-1.039-.45-1.889-1-1.889s-1-.723-1-1.607c0-1.043-.546-1.398-1.556-1.01-1.095.42-1.868-.302-2.615-2.444-.583-1.673-1.279-2.822-1.547-2.555-.729.729 2.581 10.189 6.371 18.207l3.352 7.091 4.748-.744c2.808-.44 5.156-.346 5.747.23.666.649.66.868-.019.653-1.156-.364-6.481 3.547-6.481 4.76 0 .436 1.35-.5 3-2.081s3-2.518 3-2.083c0 .434 1.627-.639 3.616-2.385 1.99-1.747 5.145-3.904 7.012-4.794l3.395-1.619-3.013-3.109c-1.657-1.709-4.577-6.011-6.489-9.559-1.911-3.548-3.486-6.151-3.498-5.784m192.601 1.372c-.965 2.514-.681 3.163.498 1.136.584-1.004.851-2.036.593-2.293-.257-.258-.749.263-1.091 1.157M46 169.378c0 .207.788.995 1.75 1.75 1.586 1.243 1.621 1.208.378-.378-1.307-1.666-2.128-2.195-2.128-1.372m65 4.11c-2.252 1.232-2.32 1.437-.683 2.072 1 .388 2.327.196 2.95-.427.623-.623 2.243-1.133 3.6-1.133 2.923 0 2.592-.496-.867-1.299-1.375-.319-3.625.035-5 .787M13 174c0 .55.45 1 1 1s1-.45 1-1-.45-1-1-1-1 .45-1 1m99 0c-.901.582-1.025.975-.309.985.655.008 1.469-.435 1.809-.985.767-1.242.421-1.242-1.5 0m9.834.876c1.97 1.249-1.034 2.19-5.095 1.596l-3.239-.474 3 .999c2.074.691 3.845.656 5.737-.115 2.872-1.169 2.844-2.893-.046-2.867-1.308.012-1.389.207-.357.861M58 189.378c0 .207.788.995 1.75 1.75 1.586 1.243 1.621 1.208.378-.378-1.307-1.666-2.128-2.195-2.128-1.372m103.872 1.372c-1.243 1.586-1.208 1.621.378.378.963-.755 1.75-1.543 1.75-1.75 0-.823-.821-.294-2.128 1.372m29.581 2.299c-2.174 2.228-6.316 5.678-9.203 7.667-2.888 1.989-5.08 3.787-4.872 3.995.208.209 2.509-.157 5.113-.813 3.624-.913 4.36-1.402 3.138-2.086-1.317-.737-.506-1.929 4.637-6.818 3.429-3.258 5.988-5.94 5.687-5.959-.301-.019-2.326 1.787-4.5 4.014M63.5 195c.995 1.1 2.035 2 2.31 2 .275 0-.315-.9-1.31-2-.995-1.1-2.035-2-2.31-2-.275 0 .315.9 1.31 2m90.95.915c-.522.504-2.075 1.117-3.45 1.364l-2.5.449 2.628.136c1.445.075 3.187-.539 3.872-1.364 1.361-1.64.973-2.052-.55-.585m-85.7 3.226c1.237 1.369 2.25 2.754 2.25 3.08 0 .325-1.013.365-2.25.089-1.86-.416-1.73-.163.75 1.459 5.681 3.715 6.352-.153.75-4.323-3.519-2.62-3.612-2.639-1.5-.305m121.063.542c.721.289 1.584.253 1.916-.079.332-.332-.258-.568-1.312-.525-1.165.048-1.402.285-.604.604M182 202c-1.282.828-1.246.972.25.985.963.008 1.75-.435 1.75-.985 0-1.22-.113-1.22-2 0m7.25-.311c.963.252 2.537.252 3.5 0 .963-.251.175-.457-1.75-.457s-2.713.206-1.75.457m6.75.704c0 .216.698.661 1.552.989.89.341 1.291.173.941-.393-.587-.951-2.493-1.406-2.493-.596m-137.758 4.374c-.168 2.398-.06 2.507.887.887.627-1.074.707-2.218.191-2.734s-.967.257-1.078 1.847m144.005-.264l2.748 2.946 2.252-2.437 2.253-2.438-2.26 1.878c-2.227 1.848-2.303 1.841-5-.509l-2.74-2.387 2.747 2.947m-150.81 4.247c3.233 3.577 5.03 4.081 5.956 1.668.998-2.601.694-2.919-.819-.859-1.386 1.887-1.517 1.858-4.75-1.059l-3.324-3 2.937 3.25M200 208.378c0 .207.787.995 1.75 1.75 1.586 1.243 1.621 1.208.378-.378-1.307-1.666-2.128-2.195-2.128-1.372M58.702 214.73c-2.966 6.607-3.324 9.248-1.502 11.07 1.729 1.729 3.278 1.481 1.809-.289-1.431-1.725-.647-7.377 1.637-11.794.812-1.569 1.314-3.337 1.116-3.93-.197-.592-1.574 1.632-3.06 4.943m18.252-1.644c-.614 1.147-.967 2.182-.785 2.3.182.118 4.342 1.97 9.244 4.116 4.903 2.146 10.249 5.026 11.881 6.399l2.967 2.496-.764-2.448c-1.694-5.431-2.505-6.95-3.722-6.974-.701-.014-4.87-1.814-9.264-4-4.394-2.186-8.091-3.975-8.215-3.975-.124 0-.728.939-1.342 2.086m94.546-.013c-1.65 1.059-5.972 3.097-9.605 4.528-6.323 2.49-6.646 2.782-7.58 6.864l-.975 4.262 4.152-3.169c2.284-1.743 7.832-4.689 12.33-6.546 8.349-3.447 8.626-3.682 7.571-6.43-.776-2.022-2.159-1.907-5.893.491m-66.508 3.677c-.024 2.359 5.451 21.25 6.159 21.25 1.349 0 .984-5.779-.401-6.341-.941-.381-.879-.769.25-1.568.825-.583 1.013-1.067.418-1.076-.594-.008-1.544-2.04-2.111-4.515-1.25-5.462-.836-5.548 6.612-1.367 4.216 2.367 5.139 2.638 3.775 1.11C118.065 222.417 107.1 216 105.61 216c-.335 0-.613.338-.618.75m40.151 6.955c-2.64 9.8-3.619 15.347-2.346 13.295 1.267-2.043 5.573-19.963 4.947-20.589-.275-.275-1.446 3.007-2.601 7.294m-5.643-3.807c-6.698 3.858-12.514 9.655-12.441 12.4.057 2.132.097 2.14 1.25.25 2.293-3.758 9.601-10.204 13.628-12.02 2.235-1.007 4.063-2.213 4.063-2.68 0-1.376-1.216-.993-6.5 2.05m-37.724.493c-.269 1.408.953 6.876 2.754 12.32 3.127 9.456 3.227 9.613 2.929 4.624-.314-5.265-3.171-17.17-4.478-18.655-.396-.451-.939.319-1.205 1.711m-14.043 2.733c.679.684 1.486.991 1.793.683.308-.308-.247-.867-1.233-1.243-1.425-.542-1.54-.428-.56.56m71.894 2.898c-5.396 3.422-6.076 6.619-1.338 6.29 1.519-.106 2.724.334 2.741 1 .017.653.539.312 1.16-.759.847-1.459.838-2.044-.036-2.335-.642-.214-.869-.87-.506-1.458.376-.608.192-.779-.424-.398-.597.369-1.357.232-1.688-.303-.331-.536.763-1.68 2.431-2.542 1.668-.863 3.033-1.782 3.033-2.043 0-.791-.43-.587-5.373 2.548m-35.12-.014c1.701 1.88 1.935 1.902 3.655.345 2.477-2.241 2.391-2.353-1.817-2.353-3.597 0-3.626.032-1.838 2.008m21.205 7.554c-1.668 6.181-2.309 10.353-1.801 11.727.653 1.765 1.027 1.194 2.18-3.329.765-3.003 1.286-6.135 1.158-6.96-.128-.825.234-3.467.804-5.872 2-8.43.222-5.062-2.341 4.434m-52.207-5.474c.115 1.929-.238 2.845-.985 2.558-1.553-.596-3.641 2.875-2.897 4.814.325.847.093 1.54-.516 1.54s-1.143-.787-1.186-1.75c-.047-1.043-.283-1.245-.583-.502-.315.781-1.502 1.033-3.171.672-1.473-.318-.428.506 2.333 1.839l5 2.415.821-3.901c.775-3.676.99-3.864 3.75-3.257 2.447.537 2.929.326 2.929-1.282 0-1.763-1.858-4.008-4.587-5.54-.691-.388-1.021.484-.908 2.394m63.495.971c0 .582.45.781 1 .441s1-.816 1-1.059-.45-.441-1-.441-1 .477-1 1.059m-4.921 2.524c.048 1.165.285 1.402.604.605.289-.722.253-1.585-.079-1.917-.332-.332-.568.258-.525 1.312m10.528 1.999c-1.015 2.644-.681 5.422.643 5.344.688-.041 3.05-.94 5.25-1.998s2.875-1.644 1.5-1.302c-1.375.343-2.169.273-1.765-.153.404-.427-.435-1.383-1.864-2.125-3.208-1.664-3.032-1.674-3.764.234m-68.044 2.523c-2.22 9.704-2.557 12.301-1.71 13.148 1.349 1.349 5.172-.96 5.031-3.038-.103-1.525-.168-1.515-.584.09-.678 2.617-2.61 1.538-2.745-1.533-.063-1.44.179-2.436.538-2.215.358.222.922-1.265 1.253-3.303.678-4.174-.908-6.974-1.783-3.149m59.472-1.324c.178 3.634 3.059 13.664 4.118 14.334 1.73 1.095 3.119.642 3.611-1.177.327-1.212.228-1.207-.63.028-.831 1.195-1.223.93-2.12-1.43-.606-1.593-1.365-4.815-1.686-7.159-.321-2.344-1.201-4.498-1.956-4.788-.755-.289-1.356-.203-1.337.192m10.965.101c0 .55.45 1.278 1 1.618.55.34 1 .168 1-.382s-.45-1.278-1-1.618c-.55-.34-1-.168-1 .382m-37.63 4.368c.331 1.238.609 4.428.616 7.089l.014 4.839 3.134-2.637c1.723-1.45 4.873-3.524 7-4.609 2.126-1.085 3.866-2.656 3.866-3.492 0-1.128-.322-1.239-1.25-.432-.687.597-3.613 2.614-6.5 4.482l-5.25 3.395v-5.442c0-3.341-.431-5.443-1.117-5.443-.67 0-.875.9-.513 2.25M111 240.487c0 .817 1.671 2.184 3.713 3.038 2.043.853 4.427 2.097 5.299 2.763 1.838 1.404-2.436-2.588-5.77-5.39-2.72-2.287-3.242-2.353-3.242-.411M98.158 242c0 1.375.227 1.938.504 1.25.278-.687.278-1.812 0-2.5-.277-.687-.504-.125-.504 1.25m10.509.667c-.367.366-.653 1.379-.637 2.25.025 1.3.221 1.257 1.092-.242 1.077-1.852.765-3.228-.455-2.008m1.94 2.915c-.334.87-.607 1.941-.607 2.381 0 .964 9.017 3.353 9.78 2.591.295-.295 1.252.014 2.128.687.876.674.692.172-.408-1.115-1.674-1.957-8.379-6.126-9.853-6.126-.238 0-.706.712-1.04 1.582m21.699 4.006c-1.942 1.79-2.242 2.407-.974 2 1.007-.323 2.582-.624 3.5-.667 1.104-.052 1.231-.254.376-.597-.992-.398-1.021-.844-.127-1.921 1.915-2.308.232-1.589-2.775 1.185" fill="#1976D2" fill-rule="evenodd"/><path fill-opacity=".296" d="M104.903 5.555c-10.882 1.97-28.591 8.467-38.437 14.101C56.031 25.626 42.261 36.672 36.116 44c-3.605 4.299-2.42 3.425 5.425-4C65.581 17.246 90.514 6.564 122.5 5.315 184.226 2.906 235.43 44.241 248.462 107c.743 3.575 1.386 5.375 1.429 4 .044-1.375-.6-5.425-1.431-9-5.634-24.254-16.821-44.403-34.438-62.024-18.467-18.472-40.681-30.116-65.813-34.499-10.499-1.831-32.988-1.79-43.306.078M115 14c0 .55.45 1 1 1s1-.45 1-1-.45-1-1-1-1 .45-1 1m-3 2.68c-6.295.647-8.37 1.35-7.26 2.46 1.377 1.377.387 4.86-1.381 4.86-.775 0-1.836-1.125-2.359-2.5-.523-1.375-1.6-2.5-2.393-2.5C95.963 19 94 20.196 94 21.807c0 1.239.267 1.326 1.2.393.66-.66 1.61-1.2 2.111-1.2.501 0-.152.868-1.45 1.929-3.369 2.753-1.405 4.591 3.467 3.246 2.574-.711 3.701-.663 4.044.17.34.825.744.773 1.415-.183.517-.736 2.689-1.456 4.826-1.601 2.138-.145 5.071-.59 6.519-.991 2.48-.686 2.572-.925 1.582-4.149-.577-1.881-1.312-3.349-1.632-3.261-.32.088-2.157.322-4.082.52m8.991 1.337c-.724 1.353-.569 2.262.582 3.414 2.519 2.518 6.108 1.92 8.585-1.431 1.22-1.65 2.583-3 3.03-3 1.243 0 .965 3.447-.388 4.8-.933.933-.638 1.2 1.327 1.2 2.226 0 2.475-.349 2.096-2.934-.386-2.631-.198-2.872 1.83-2.342 1.497.391 2.031.222 1.583-.503-.405-.657-4.072-1.085-9.167-1.071-7.214.02-8.64.301-9.478 1.867m2.36.51c-.733 1.91 1.272 3.555 3.357 2.755 1.888-.725 1.186-3.679-.973-4.094-.957-.185-2.03.418-2.384 1.339m17.717.345c-1.489 2.783 1.275 5.451 5.069 4.895 1.548-.228 2.991.07 3.208.66.27.735 1.06.679 2.511-.177 2.71-1.6 3.144-1.572 3.144.203 0 .827 1.615 1.902 3.75 2.494 4.915 1.365 5.293 1.329 4.612-.447-.63-1.642-.296-1.796 1.993-.917.835.32 1.276 1.214.98 1.986-.51 1.33.752 2.103 6.201 3.797 1.501.467 2.054.174 2.105-1.117.039-.962.406-2.53.816-3.485.754-1.754-.011-2.266-6.332-4.238-1.633-.509-2.161-.394-1.691.367.429.694-.178 1.078-1.625 1.028-1.27-.043-1.746-.306-1.059-.583 2.27-.916 1.306-2.005-2.89-3.262-3.385-1.014-4.301-.997-5.019.092-.707 1.071-1.141.99-2.22-.418-.738-.962-2.149-1.75-3.136-1.75-1.676 0-1.686.121-.138 1.831.912 1.007 1.362 2.127 1.001 2.487-.893.894-8.606-.334-9.848-1.567-.663-.658.294-.763 2.835-.311 3.354.597 3.792.455 3.492-1.129-.515-2.715-6.363-3.046-7.759-.439m-33.401-.205c-1.201 1.2-.699 4.333.694 4.333.913 0 1.204-.824.884-2.5-.522-2.729-.596-2.815-1.578-1.833m4.165 1.407c1.044 2.824 2.599 2.915 2.988.176.241-1.702-.177-2.25-1.718-2.25-1.642 0-1.889.403-1.27 2.074m31.981-1.391c.721.289 1.584.253 1.916-.079.332-.332-.258-.568-1.312-.525-1.165.048-1.402.285-.604.604m13.413 3.142c-.974.629-.797 1.253.756 2.659 2.254 2.04 2.67 1.915 3.173-.948.374-2.127-1.811-3.079-3.929-1.711M175 22c0 .55.477 1 1.059 1s.781-.45.441-1-.816-1-1.059-1-.441.45-.441 1m-90.25 1.141C82.199 24.093 80.924 26 82.839 26c1.277 0 3.182 4.783 2.555 6.415-.406 1.058.003 1.294 1.543.891 2.27-.593 3.846-2.306 2.122-2.306-1.849 0-1.143-1.489 1.191-2.513 3.298-1.447 3.117-5.92-.25-6.18-1.375-.106-3.737.269-5.25.834m2.466.705c-1.743 1.105-.383 4.333 1.66 3.939 1.758-.338 2.261-3.916.624-4.435-.55-.175-1.578.049-2.284.496M97.5 24c-.34.55-.141 1 .441 1S99 24.55 99 24s-.198-1-.441-1-.719.45-1.059 1M71 26.5c-.685.825-2.09 1.5-3.122 1.5-1.033 0-1.878.45-1.878 1s.563 1.008 1.25 1.017c.688.009-.213.953-2 2.098-3.764 2.411-3.814 2.629-1.291 5.654 1.852 2.221 1.969 2.233 5.468.564 1.966-.937 3.522-2.183 3.456-2.769C72.629 33.309 73.039 32 74 32c.55 0 1 .675 1 1.5 0 1.721.863 1.872 2.995.524 1.288-.814 1.231-1.138-.412-2.34-1.249-.913-1.674-2.005-1.231-3.16.534-1.391.266-1.657-1.262-1.258-1.365.357-1.782.096-1.408-.879.709-1.849-1.117-1.772-2.682.113m98.667-.833c-1.18 1.179-.711 3.333.726 3.333 1.162 0 2.607-1.985 2.607-3.582 0-.674-2.605-.48-3.333.249m8.583 2.805c0 1.539.708 2.697 1.875 3.068 2.144.68 2.469 2.091.625 2.719-.687.234.724 1.437 3.136 2.673 3.051 1.563 4.597 1.905 5.08 1.124.381-.618 1.457-.831 2.389-.473 1.229.471 1.409.996.656 1.904-.769.927-.124 1.952 2.474 3.934 1.933 1.474 3.515 2.208 3.515 1.63 0-.578.9-1.051 2-1.051 2.206 0 2.723 1.572.75 2.285-.831.3-.282 1.484 1.637 3.531 2.363 2.52 3.452 2.985 6 2.56 2.933-.489 3.003-.43 1.215 1.021-1.569 1.273-1.678 1.806-.628 3.072 1.331 1.603 3.536 2.165 2.609.665-.68-1.101 2.85-4.368 3.748-3.47.368.368.669.171.669-.438 0-1.713-2.21-2.683-5.362-2.352-1.647.173-2.611-.108-2.269-.662.743-1.202 5.478-1.269 6.208-.087.718 1.162 2.423 1.121 2.423-.058 0-.513-.9-1.218-2-1.567s-2-1.253-2-2.008c0-1.556-1.836-2.99-2.709-2.116-.317.316.051 1.364.816 2.328.766.964-.316.366-2.405-1.328-2.66-2.157-4.534-2.94-6.25-2.612-1.522.291-2.452.005-2.452-.754 0-.677.67-.967 1.5-.648 2.82 1.082 1.461-.859-2.626-3.752-3.071-2.174-4.277-2.576-4.867-1.622-.837 1.356-3.007.558-3.007-1.106 0-.55.45-.722 1-.382.55.34 1 .224 1-.257 0-1.016-7.211-5.243-8.945-5.243-.645 0-.895.45-.555 1 .34.55-.132 1-1.048 1-1.145 0-1.466-.522-1.025-1.67.353-.921.065-2.036-.643-2.485-2.058-1.306-2.534-1-2.534 1.627m-108.276.565c-.945.598-1.037.938-.255.948.67.008.959.69.643 1.515-.317.825-.126 1.5.424 1.5 1.341 0 2.197-2.409 1.345-3.788-.443-.717-1.203-.778-2.157-.175m48.135-.126c-.842.534 1.329.692 5.5.403 9.3-.646 10.274-1.143 2.391-1.22-3.575-.035-7.126.333-7.891.817m-5.359.751c.688.278 1.813.278 2.5 0 .688-.277.125-.504-1.25-.504s-1.937.227-1.25.504M97 32.87c-8.066 2.651-17 6.653-17 7.615 0 .244 2.138-.502 4.75-1.659S94 35.24 99.5 33.427c5.5-1.814 9.1-3.309 8-3.324-1.1-.015-5.825 1.231-10.5 2.767m54.5-.455c14.378 4.074 25.708 9.486 34.5 16.482 10.351 8.236 22.431 22.12 27.933 32.103 3.608 6.548 4.102 5.954.651-.783-7.887-15.396-24.388-31.455-41.841-40.72-7.662-4.068-23.85-9.593-27.605-9.423-.901.041 1.962 1.095 6.362 2.341m33.102 1.179c-.357.931-.392 1.949-.078 2.264.774.774 4.026-1.349 3.779-2.467-.366-1.651-3.046-1.504-3.701.203m-118.9.037c-1.124 1.125 1.268 4.318 2.795 3.732 1.107-.425 1.217-1.028.45-2.463-1.045-1.952-2.135-2.378-3.245-1.269M115 35c-1.601 1.601-2.003 3.347-2.015 8.75-.009 3.712-.372 7.311-.807 7.997-.436.685-3.228 1.97-6.207 2.854-2.978.885-7.6 2.663-10.272 3.952-5.279 2.546-5.207 2.096.68-4.288 1.642-1.779 2.628-3.579 2.193-4-.435-.421-3.374 2.075-6.531 5.547l-5.74 6.312-3.142-2.643c-3.662-3.082-3.386-4.11 2.953-10.987C90.347 43.899 90.748 43 88.559 43c-.793 0-3.352 2.446-5.687 5.435-3.455 4.425-4.57 5.262-5.993 4.5-3.949-2.113-6.379-.986-13.654 6.339-3.974 4-7.225 8.043-7.225 8.985 0 .941 2.241 4.08 4.98 6.976 2.74 2.896 4.99 5.948 5 6.784.011.835-1.789 5.11-4 9.5-2.211 4.389-4.282 9.599-4.603 11.576-.792 4.883-4.378 6.905-12.246 6.905-7.689 0-8.131.752-8.131 13.812 0 11.899.46 12.518 9.521 12.818 7.782.257 10.034 1.394 10.852 5.483.35 1.751 2.457 6.981 4.683 11.622 4.516 9.418 4.715 8.235-2.764 16.46-5.253 5.777-5.097 6.385 4.063 15.801 7.062 7.258 9.369 8.231 12.464 5.254 6.009-5.782 5.025-5.612 15.313-2.651a4817.318 4817.318 0 0015.368 4.396l6 1.7.5 7.051c.733 10.335 1.851 11.254 13.7 11.254 8.637 0 9.588-.197 11.845-2.455 1.373-1.372 2.455-3.624 2.455-5.107 0-2.14.338-2.51 1.75-1.914.963.405 4.004.95 6.758 1.21 4.979.471 5.063.429 14.5-7.112 5.221-4.172 9.999-7.594 10.62-7.604.62-.01 1.687.657 2.372 1.482 2.448 2.95 6.007 1.7 13.125-4.611 7.564-6.706 8.961-9.583 6.485-13.361-.885-1.352-1.61-3.373-1.61-4.493 0-1.119-.216-2.035-.479-2.035-.264 0-4.201 2.981-8.75 6.624s-10.296 8.004-12.771 9.691c-2.475 1.688-4.65 3.432-4.833 3.877-.184.444-.811.808-1.395.808s-2.009.927-3.167 2.059c-5.016 4.907-10.97 8.961-12.482 8.5C143.505 196.238 69.9 176 69.073 176c-1.839 0-1.173 1.998.677 2.032 1.667.03 1.667.095 0 1.36-2.563 1.946-2.259 2.293 3.25 3.705 2.75.704 5 1.615 5 2.024 0 .409-1.354 1.707-3.009 2.885l-3.009 2.143-6.491-6.233c-3.57-3.428-6.491-6.906-6.491-7.728 0-.822 2.25-3.874 5-6.782 2.866-3.03 5-6.22 5-7.474 0-1.204-1.296-4.493-2.879-7.31-1.583-2.817-3.862-8.018-5.063-11.558-1.201-3.539-2.943-7.013-3.871-7.718-.928-.705-4.304-1.297-7.503-1.314-9.239-.051-9.684-.557-9.684-11.008 0-5.587.425-9.168 1.14-9.61.627-.388 3.728-.627 6.891-.532 4.887.146 6.218-.221 8.86-2.444 1.71-1.439 3.109-3.39 3.109-4.337 0-1.866 3.737-11.838 6.175-16.475 1.481-2.818 1.522-2.711 2.123 5.5.338 4.606 1.298 10.641 2.134 13.413.836 2.771 1.729 9.296 1.984 14.5.706 14.391 5.165 25.323 14.323 35.113 3.96 4.234 4.207 4.779 2.579 5.69-.991.554-1.508 1.302-1.149 1.66 1.172 1.172 22.141 5.534 23.907 4.974 2.173-.69 15.921 2.345 17.924 3.956.825.664 9.712 3.097 19.749 5.408l18.249 4.202 3.751-1.994c5.894-3.132 19.612-13.441 19.36-14.548-.125-.55.812-1.244 2.082-1.542 2.014-.473 2.761-2.196 5.856-13.5 4.834-17.663 4.097-16.375 9.145-15.979 2.57.201 5.216-.24 6.558-1.094 2.106-1.339 2.25-2.123 2.25-12.208 0-11.117-.657-13.177-4.2-13.177-2.188 0-2.238-1.237-.311-7.591C215.615 92.104 214.467 91 200.622 91c-8.692 0-9.642-.191-11.065-2.223-2.766-3.948-1.916-6.72 3.943-12.862 3.025-3.172 5.5-6.519 5.5-7.438 0-2.286-12.812-15.392-15.773-16.135-1.594-.4-3.343.107-5.262 1.526l-2.874 2.125-2.939-4.247c-3.518-5.081-7.906-9.325-8.76-8.471-.339.338.947 2.553 2.857 4.92 1.909 2.368 4.272 5.559 5.251 7.092 1.738 2.724 1.726 2.843-.535 5.25-1.272 1.355-2.838 2.463-3.479 2.463s-3.277-2.72-5.859-6.044c-2.581-3.324-5.373-6.305-6.203-6.624-3.262-1.251-2.594.924 1.638 5.334 2.441 2.543 3.763 4.359 2.938 4.036-20.479-8.037-19-6.855-19-15.182C141 33.967 139.822 33 126.961 33c-8.628 0-10.229.268-11.961 2m-59.25 3.324C54.237 39.562 53 41.319 53 42.229c0 .909-.526 1.978-1.17 2.376-.787.486-.961.178-.531-.941.813-2.119-.136-2.122-2.472-.007-1.766 1.598-1.751 1.697.421 2.808 1.239.634 2.19 1.913 2.113 2.843-.182 2.222.921 2.142 3.059-.22 1.644-1.816 1.639-1.936-.095-2.384-1.139-.295-.698-.528 1.175-.621 4.03-.201 7.012-2.928 7.199-6.583.084-1.65-.077-2.437-.357-1.75-.73 1.794-2.671 1.549-1.98-.25.837-2.183-1.436-1.777-4.612.824m61.285-.39c-.569 1.064-1.035 4.564-1.035 7.778 0 7.086-1.748 9.962-6.609 10.874-1.953.367-3.804 1.397-4.114 2.29-.31.893-2.043 3.199-3.853 5.124C98.587 67.019 93 76.574 93 78.408c0 .339 1.688-.448 3.75-1.749 2.063-1.302 4.722-2.675 5.911-3.052 1.188-.377 2.886-1.792 3.773-3.146 1.677-2.559 5.174-3.487 4.27-1.133-.418 1.091.412 1.079 4.643-.068 5.031-1.364 17.303-1.187 23.945.345 1.535.354 2.719.25 2.631-.23-.453-2.477.341-2.496 2.875-.069C148.385 72.743 159 79.157 159 77.887c0-1.889-4.296-9.454-7.871-13.86-1.996-2.461-3.629-4.903-3.629-5.428 0-.526-1.286-1.299-2.857-1.719-5.317-1.422-6.643-3.539-6.643-10.601C138 36.398 137.574 36 127 36c-7.805 0-9.06.244-9.965 1.934m78.001 1.522c-1.916 2.309-.183 3.987 2.04 1.975 1.032-.934 1.636-2.088 1.341-2.565-.786-1.273-2.012-1.059-3.381.59M55.683 40.798c-2.282 2.521-2.12 3.202.758 3.202 3.084 0 4.229-1.759 2.36-3.627-1.246-1.247-1.655-1.191-3.118.425m17.049 3.738C70.679 45.931 69 47.287 69 47.55c0 .263 1.8-.713 4-2.169C76.493 43.07 77.674 42 76.732 42c-.147 0-1.947 1.141-4 2.536m131.233 2.006c-.974 1.174-1.002 1.821-.115 2.708 1.43 1.43 4.782-1.419 3.709-3.154-.935-1.514-2.086-1.371-3.594.446m-143.83 8.039C39.08 74.075 27.869 98.671 26.443 128.5c-.316 6.6-.173 14.025.318 16.5.698 3.517.907 1.333.959-10 .074-16.411 1.122-23.408 5.455-36.412 5.609-16.837 10.718-25.217 23.524-38.583C63.025 53.402 67.985 48 67.722 48c-.263 0-3.677 2.962-7.587 6.581m-20.987-.642c-3.101 3.679-4.104 5.623-3.646 7.068.71 2.238 4.39 2.701 6.298.793 1.461-1.461 1.625-6.181.184-5.29-.559.346-.789.996-.511 1.446.278.449-.184 1.389-1.026 2.088-1.209 1.003-1.787 1.013-2.739.046-.946-.959-.774-1.545.792-2.7 1.1-.812 2-1.869 2-2.35 0-1.779 1.498-2.286 3.021-1.022.864.716 1.339 1.905 1.056 2.642-.925 2.409.997 1.407 3.316-1.729 3.177-4.297 1.342-8.328-1.973-4.334-1.211 1.459-1.376 1.453-1.91-.067-.459-1.309-1.497-.581-4.862 3.409m7.519-2.272c-.367.366-.667 1.131-.667 1.7 0 .626.466.567 1.183-.15.651-.651.951-1.416.667-1.7-.284-.284-.817-.217-1.183.15m19.052 9.112c-3.146 3.178-5.712 6.441-5.703 7.25.008.809 2.005 3.686 4.437 6.394l4.422 4.924.661-2.924c.884-3.905 4.151-12.917 5.929-16.356 1.079-2.085 1.149-3.053.284-3.918-2.15-2.15-4.305-1.155-10.03 4.63m113.715-3.476c-2.641 2.272-2.658 2.363-1.023 5.526 2.405 4.65 5.556 17.891 5.574 23.421.011 3.597.388 4.75 1.55 4.75 1.208 0 1.315-.412.5-1.934-2.352-4.396-1.263-8.428 3.542-13.108 7.258-7.07 7.269-7.183 1.24-13.558-7.092-7.498-8.078-7.94-11.383-5.097m40.188 2.155c.374.973-.303 1.675-2.031 2.109-2.927.734-3.08 1.205-1.199 3.683 1.573 2.072 2.308 2.199 2.889.5.235-.687.268-.27.072.928-.195 1.197.321 2.853 1.146 3.678.826.826 1.501 2.004 1.501 2.618 0 1.429 4.567 6.026 5.987 6.026 1.982 0 2.855-4.338 1.433-7.123-1.382-2.705-4.989-4.384-5.978-2.783-.676 1.093-2.448 1.207-2.427.156.009-.412.44-1.421.959-2.242.751-1.188 1.196-1.238 2.184-.25 1.923 1.923 3.032 1.466 1.842-.758-.589-1.1-1.955-2-3.035-2-1.081 0-1.965-.436-1.965-.969 0-.532.731-.688 1.624-.345 1.446.555 1.434.332-.115-2.031-1.849-2.822-3.825-3.641-2.887-1.197M19.506 66.75c-2.499 4.263-5.936 11.35-7.64 15.75-3.568 9.219-7.899 25.538-7.796 29.378.039 1.442.898-1.304 1.91-6.102 3.173-15.047 8.478-28.85 15.961-41.526 1.705-2.888 2.876-5.25 2.604-5.25-.273 0-2.54 3.487-5.039 7.75m56.649-2.888c-3.769 8.761-5.237 16.233-5.251 26.728-.007 5.55.519 12.203 1.169 14.784l1.182 4.694 2.451-6.784c1.348-3.731 2.842-10.458 3.319-14.949.478-4.491 2.034-11.637 3.458-15.88 1.425-4.243 2.459-7.769 2.299-7.835-.161-.066-1.687-1.38-3.393-2.919l-3.101-2.799-2.133 4.96m18.035-1.32c-3.955 1.948-7.193 3.636-7.197 3.75-.004.114-1.129 3.514-2.5 7.554C83.122 77.886 82 83.254 82 85.776v4.584l3.75-4.367c2.063-2.401 4.679-6.908 5.814-10.014 2.048-5.603 4.906-10.4 8.774-14.729 1.106-1.237 1.793-2.25 1.526-2.25-.266 0-3.72 1.594-7.674 3.542m58.382-.377c4.18 4.761 6.889 9.457 8.847 15.335.916 2.75 3.506 7.025 5.756 9.5l4.09 4.5-.716-6c-.394-3.3-1.705-8.911-2.914-12.469-2.036-5.994-2.599-6.703-7.666-9.653-3.008-1.751-6.583-3.515-7.945-3.92-2.448-.728-2.442-.698.548 2.707m18.732 1.802l-3.196 2.909 1.994 5.674c1.097 3.12 2.263 8.548 2.591 12.062l.596 6.388h4.356c4.186 0 4.355-.118 4.355-3.042 0-6.495-5.521-27.103-7.214-26.929-.158.016-1.724 1.338-3.482 2.938m-141.702 2.31c-3.083 4.043-3.209 4.694-.782 4.06 2.24-.586 4.369 1.739 3.25 3.55-.623 1.008-1.303 1.059-2.877.216C28.059 73.496 26.762 73 26.31 73c-1.484 0-3.522 6.018-2.89 8.535.37 1.478.186 2.465-.46 2.465-.593 0-.8-.45-.46-1s.214-1-.28-1c-.495 0-1.436 1.179-2.093 2.62-1.027 2.254-.976 2.536.363 2.022.879-.337 2.423.271 3.551 1.399 1.993 1.993 1.996 1.993 2.977-.588 1.291-3.395 1.265-3.499-.682-2.752-1.119.43-1.427.256-.941-.531.398-.644 1.364-1.17 2.147-1.17.783 0 2.615-2.362 4.069-5.25 1.455-2.888 3.488-6.444 4.517-7.904C38.35 66.695 38.559 64 36.582 64c-.78 0-2.084-.255-2.898-.568-.925-.355-2.453.71-4.082 2.845m2.065-.61c-.367.366-.667 1.131-.667 1.7 0 .626.466.567 1.183-.15.651-.651.951-1.416.667-1.7-.284-.284-.817-.217-1.183.15m2.427 1.72c-.71.855-.81 1.67-.247 2.018.519.321 1.226-.153 1.572-1.054.848-2.21.138-2.727-1.325-.964M22.5 72c-.34.55-.141 1 .441 1S24 72.55 24 72s-.198-1-.441-1-.719.45-1.059 1m92 .399c-2.75.676-6.013 1.779-7.252 2.451-3.493 1.896-5.527 7.716-5.644 16.15-.088 6.34.335 8.393 2.732 13.276 1.56 3.177 4.373 7.002 6.25 8.5 3.65 2.912 4.273 4.224 2.007 4.224-2.363 0-10.311-9.725-12.001-14.684-2-5.869-2.048-15.771-.105-21.281l1.488-4.216-2.802 1.841c-6.663 4.376-7.34 5.169-7.886 9.237-.685 5.108 1.217 15.065 4.023 21.056 1.171 2.501 4.729 7.226 7.907 10.5 3.558 3.667 5.42 6.31 4.847 6.883-1.267 1.267-11.269-8.857-13.959-14.131C91.225 106.561 89 97.601 89 91.649v-4.93l-3.49 4.39c-4.158 5.23-4.298 7.37-1.104 16.811 3.142 9.288 7.522 15.974 14.437 22.04 5.503 4.827 6.636 7.894 1.729 4.679-7.708-5.05-14.45-14.651-18.685-26.606l-2.668-7.533-1.678 6c-.923 3.3-1.874 6.604-2.113 7.341-1.058 3.259 8.072 17.788 15.021 23.905 3.974 3.499 5.736 6.254 3.998 6.254-2.507 0-13.825-12.372-17.84-19.5l-1.689-3 .642 5.982c.353 3.291 1.526 8.347 2.607 11.236C81.799 148.424 91.602 161 95.536 161c1.914 0 6.464-5.096 6.464-7.24 0-.968.415-1.76.922-1.76.933 0 10.875-19.767 12.951-25.75 2.999-8.647 3.41-9.407 4.357-8.067.623.881.733.405.33-1.44-.418-1.915-.221-2.678.645-2.5.686.141 1.402-.756 1.591-1.993.189-1.237.987-2.25 1.774-2.25 1.095 0 1.43-1.538 1.43-6.563 0-5.882-.196-6.53-1.892-6.25-2.544.421-6.108-2.954-6.108-5.783 0-2.973 1.622-3.958 2.293-1.393.735 2.811 7.667 2.796 10.217-.022 1.563-1.727 1.661-2.537.696-5.75l-1.123-3.739 2.959 3.266c3.689 4.073 3.837 8.036.448 12.063-2.356 2.8-2.442 3.294-1.417 8.077.601 2.802 1.22 5.094 1.376 5.094.156 0 1.512-3.37 3.015-7.489 1.502-4.119 3.621-8.621 4.71-10.004 1.747-2.222 1.838-2.953.778-6.261-.66-2.061-2.314-5.238-3.677-7.062-2.837-3.798-2.316-5.436.825-2.595 2.831 2.56 5.9 8.736 5.9 11.871 0 2.179.445 2.54 3.128 2.54 3.101 0 3.122-.035 2.473-4.092-.807-5.048-4.017-11.534-5.786-11.691-.723-.065-4.015-.808-7.315-1.651-7.085-1.812-16.043-1.877-23-.167m109.832.179c-.333.867.057 2.24.867 3.05 1.272 1.271 1.634 1.278 2.654.049 1.428-1.721.485-4.677-1.491-4.677-.784 0-1.697.71-2.03 1.578M112.776 75.75c-7.545 8.604-7.327 22.486.48 30.584 5.073 5.263 6.381 3.221 1.44-2.248-4.936-5.465-6.292-12.72-3.791-20.297.643-1.951 2.053-4.346 3.133-5.323 1.992-1.803 2.658-4.466 1.117-4.466-.465 0-1.536.787-2.379 1.75m-87.671 2.054c-1.676 3.131.223 4.571 2.981 2.26 2.057-1.724 2.192-2.172.914-3.028-2.119-1.42-2.796-1.286-3.895.768M152.735 84c1.473 5.85 1.595 6 4.888 6 2.861 0 3.377-.353 3.377-2.309 0-1.27-.562-3-1.25-3.845-1.273-1.565-7.163-5.846-8.043-5.846-.266 0 .196 2.7 1.028 6m78.029-4.336c-1.374 1.375-1.933 1.44-3.214.378-1.294-1.074-1.55-1.014-1.55.367 0 2.183 2.355 3.007 4.822 1.686 1.537-.823 2.108-.72 2.561.461.663 1.728-1.618 2.952-3.883 2.082-1.87-.717-1.957 1.355-.161 3.811 1.261 1.725 1.378 1.73 2.009.085.493-1.283 1.331-1.58 3.161-1.121 1.37.344 2.491.449 2.491.233 0-.603-4.062-9.646-4.333-9.646-.131 0-.987.749-1.903 1.664M163.638 88.5c.317.825 1.033 1.5 1.591 1.5.586 0 .489-.635-.229-1.5-.685-.825-1.401-1.5-1.591-1.5-.19 0-.087.675.229 1.5M18.597 90.25c-1.971 3.06-3.324 10.706-1.609 9.09 1.456-1.371 7.012.181 7.012 1.958 0 1.693 1.666-.436 2.503-3.199.594-1.961.429-2.287-.9-1.777-1.307.502-1.51.156-1.03-1.755.708-2.824-1.05-6.567-3.085-6.567-.793 0-2.094 1.013-2.891 2.25M218.066 89c.003.825.683 2.625 1.511 4l1.506 2.5-.662-2.5c-.365-1.375-1.045-3.175-1.512-4-.754-1.333-.848-1.333-.843 0m13.969 2.935c-1.188 2.22.216 7.065 2.047 7.065.686 0 .848-.69.412-1.75-1.458-3.539-1.703-5.25-.755-5.25.534 0 1.374 1.384 1.866 3.075 1.064 3.657 2.769 4.309 3.208 1.227.737-5.182-4.527-8.573-6.778-4.367m-212.932.873C17.908 95.04 18.55 96 21.236 96c1.385 0 1.816-.592 1.584-2.172-.424-2.879-2.428-3.429-3.717-1.02m120.97 2.627c-.934 2.236-4.369 11.161-7.635 19.834l-5.938 15.768-.35-10.268-.349-10.269-1.704 6c-1 3.525-2.206 5.894-2.921 5.743-.826-.174-1.015.548-.588 2.25.388 1.547.204 2.507-.48 2.507-.609 0-1.108.45-1.108 1s.87 1 1.933 1c1.063 0 2.22.907 2.572 2.015.351 1.108 1.044 1.764 1.539 1.458.495-.306-.677 3.798-2.603 9.121-1.927 5.322-3.264 9.916-2.972 10.208.292.292.531.006.531-.635 0-.642.498-1.167 1.107-1.167s.864.634.567 1.408c-.609 1.586.95 2.099 9.469 3.12 4.534.543 5.813.373 6.505-.864.652-1.165 1.894-1.401 5.107-.97 3.478.466 4.245.952 4.245 2.688 0 1.982 1.296 2.322 20.242 5.312 17.319 2.734 20.357 2.986 21.049 1.75 1.216-2.172 2.937-1.739 2.209.556-.934 2.944 3.245 2.711 4.486-.25C196.311 159.589 213 96.413 213 94.559c0-.836-1.012-1.735-2.25-1.996-1.238-.261-17.264-.636-35.615-.834l-33.365-.359-1.697 4.065M236 92.941c0 .518.445 1.216.989 1.552.566.35.734-.051.393-.941-.665-1.732-1.382-2.049-1.382-.611m-93.78 2.453c-.396.608-5.056 12.131-10.355 25.606l-9.634 24.5 2.634.736c3.612 1.008 68.298 9.934 68.746 9.486.784-.783 16.427-59.017 15.976-59.468-.266-.266-13.219-.668-28.785-.894-15.566-.226-30.453-.559-33.082-.741-2.754-.191-5.085.138-5.5.775M221.031 97c0 .825.436 2.175.969 3 .862 1.333.969 1.333.969 0 0-.825-.436-2.175-.969-3-.862-1.333-.969-1.333-.969 0M232 100.8c0 .44.519 1.319 1.153 1.953.634.634 1.197 3.199 1.25 5.7.062 2.919.545 4.547 1.347 4.547.688 0 1.25-.731 1.25-1.625 0-1.255.652-1.495 2.861-1.053l2.861.572-.862-4.615c-.92-4.922-1.854-6.562-2.58-4.529-.608 1.701-2.766 1.574-4.28-.25-1.34-1.614-3-2.002-3-.7m-210.921.811c-.046.65-1.162.905-2.685.613-1.6-.305-2.946.038-3.485.889-1.243 1.962-1.119 6.639.198 7.453.77.476.898-.268.42-2.441-.437-1.994-.295-3.125.394-3.125.593 0 1.079 1.383 1.079 3.073 0 2.359.397 2.997 1.706 2.745 1.709-.329 3.811-7.047 2.895-9.251-.301-.724-.468-.71-.522.044M235.7 105.96c.316 1.207 1.167 1.597 2.806 1.284 2.947-.564 2.285-2.697-.895-2.881-1.783-.102-2.253.29-1.911 1.597M18 106.5c0 .825.45 1.5 1 1.5s1-.675 1-1.5-.45-1.5-1-1.5-1 .675-1 1.5m206.495 1.5c1.48 7.801 2.655 25.715 2.198 33.5-.436 7.419-.355 8.209.457 4.5 1.37-6.254.295-30.414-1.601-36-.84-2.475-1.314-3.375-1.054-2M10 114.559c0 1.957.418 3.301.928 2.985 1.159-.716 2.44 3.052 1.535 4.515-.366.593-1.295.836-2.064.541-1.072-.412-1.399.522-1.399 3.99 0 2.764.39 4.287 1 3.91.55-.34 1-1.217 1-1.948 0-.732.859-2.391 1.909-3.688l1.909-2.357 1.01 2.496a365.783 365.783 0 011.781 4.497c.689 1.785.812 1.704 1.148-.755.224-1.637-.279-3.41-1.24-4.371-1.915-1.915-1.613-4.874.497-4.874 1.023 0 1.568-1.245 1.748-4 .226-3.446.103-3.723-.89-2-.633 1.1-1.851 2.806-2.705 3.792-1.48 1.708-1.611 1.685-2.824-.5-.7-1.261-1.288-3.079-1.308-4.042-.069-3.431-2.035-1.683-2.035 1.809m199.504-1.352c-.468 1.301-5.497 20.076-5.501 20.543-.008.727 6.405.102 8.063-.785 1.69-.905 1.934-2.16 1.934-9.965 0-7.928-.226-9.051-2.015-10.008-1.521-.814-2.129-.762-2.481.215m31.571 1.043c.472 3.64-.129 4.048-2.575 1.75-3.149-2.958-3.432-.621-.326 2.686 1.196 1.272 1.684 2.314 1.084 2.314-.6 0-1.292-.562-1.538-1.25-.989-2.771-1.766.266-.867 3.39.532 1.848 1.007 2.798 1.057 2.11.049-.687.592-1.25 1.205-1.25.685 0 .492.951-.5 2.465-.888 1.355-1.603 3.268-1.588 4.25.02 1.35.441 1.116 1.731-.965 1.999-3.223 3.242-3.534 3.242-.809 0 1.068.411 2.195.913 2.505.513.317.935-2.285.963-5.941.044-5.715-.83-8.077-2.129-5.755-.23.412-.21.075.045-.75 1.264-4.079 1.354-6 .281-6-.638 0-1.088.563-.998 1.25m9.211 4.25c.008 2.75.202 3.756.432 2.236.229-1.52.223-3.77-.014-5-.237-1.23-.425.014-.418 2.764m-247.034 0c.011 2.2.216 2.982.455 1.738.239-1.244.23-3.044-.02-4s-.446.062-.435 2.262M241.5 125c.34.55.816 1 1.059 1s.441-.45.441-1-.477-1-1.059-1-.781.45-.441 1m-120.738 8.774c-1.747 2.002-2.122 7.885-.565 8.848.614.379.86.07.582-.733-.264-.764.352-2.462 1.37-3.774 3.031-3.905 1.744-7.932-1.387-4.341M3.286 139.5c.008 2.75.202 3.756.432 2.236.229-1.52.223-3.77-.014-5-.237-1.23-.425.014-.418 2.764m246.986.5c0 2.475.195 3.488.434 2.25.238-1.238.238-3.262 0-4.5-.239-1.238-.434-.225-.434 2.25m-136.093 9.316c-3.398 3.506-3.291 4.684.429 4.684 2.625 0 2.911-.353 3.854-4.75.885-4.125-.238-4.108-4.283.066M28 152.941c0 1.068.385 2.179.856 2.47.47.291.643-.583.383-1.941-.564-2.951-1.239-3.239-1.239-.529m197.158.059c0 1.375.227 1.938.504 1.25.278-.687.278-1.812 0-2.5-.277-.687-.504-.125-.504 1.25M5.604 157c1.256 9.768 8.628 28.514 14.059 35.75 3.093 4.122 5.823 4.141 10.024.068 1.806-1.75 3.44-2.987 3.631-2.75.191.238 1.993 3.182 4.004 6.544 2.01 3.362 6.953 9.245 10.985 13.074 6.345 6.027 7.202 7.246 6.387 9.075-1.45 3.247.027 7.098 3.54 9.235 1.749 1.064 7.924 3.593 13.723 5.621 5.799 2.028 12.646 4.559 15.216 5.625 4.506 1.869 4.658 2.068 4.283 5.598-.322 3.036-.155 2.808.982-1.34.753-2.75 1.413-5.937 1.466-7.083.076-1.645.752-2.084 3.214-2.084h3.118l-.654 5.564c-.847 7.211-2.915 10.464-6.246 9.827-1.59-.304-2.141-.129-1.527.485.528.528 2.021.81 3.316.626 3.179-.452 5.08-4.767 5.243-11.901.166-7.296 1.291-6.373 4.702 3.858l2.57 7.708 9.418 2.318 9.419 2.318 9.511-2.182c5.232-1.2 9.609-2.265 9.727-2.366.34-.292 9.266-29.003 9.276-29.838.005-.412-.633-.75-1.418-.75-.784 0-1.593-.787-1.796-1.75-.204-.963-.371.5-.371 3.25-.001 2.913-1.4 9.384-3.351 15.5-3.135 9.827-3.421 10.329-4.466 7.838-1.054-2.512-1.256-2.58-3.603-1.208-2.193 1.282-2.228 1.384-.297.864 1.588-.428 2.503-.004 3.331 1.544.628 1.173.945 2.331.703 2.572-.988.989-14.918 4.388-15.785 3.852-.516-.319-.938-3.928-.938-8.021 0-6.073.287-7.441 1.559-7.441.857 0 1.281.45.941 1-.346.559.429 1 1.758 1 2.303 0 2.344-.136 1.331-4.5-.574-2.475-1.315-4.5-1.647-4.5-.332 0-1.206 1.125-1.942 2.5s-1.712 2.5-2.169 2.5c-.457 0-.831 3.798-.831 8.441 0 4.643-.38 8.676-.844 8.962-.464.287-2.376.118-4.25-.376-1.873-.495-5.309-1.393-7.636-1.996l-4.23-1.097-4.095-12.988c-2.275-7.219-3.908-14.201-3.675-15.717.231-1.501.232-2.166.002-1.479-.23.688-1.061 1.25-1.845 1.25-1.749 0-1.751-.17.055 4.948l1.481 4.199-2.817-2.371c-1.55-1.304-7.166-4.343-12.482-6.753-5.315-2.411-9.664-4.77-9.664-5.243 0-.473.962-2.745 2.137-5.049l2.137-4.188-3.887-3.236a3448.663 3448.663 0 00-10.384-8.586c-5.257-4.33-7.368-7.006-11.061-14.021C47.612 165.778 44.09 163.256 40 169c-1.175 1.65-2.479 3-2.897 3-.419 0-1.814-2.249-3.102-4.997-1.287-2.748-2.523-4.815-2.746-4.591-.787.786 5.133 11.681 8.457 15.565l3.366 3.932-3.289 1.675c-1.809.921-5.625 3.867-8.479 6.545-2.855 2.679-5.814 4.871-6.576 4.871-3.894 0-11.87-15.218-16.275-31.056-3.29-11.827-3.571-12.51-2.855-6.944m242.554-2c0 1.375.227 1.938.504 1.25.278-.687.278-1.812 0-2.5-.277-.687-.504-.125-.504 1.25m-90.658 1c-.34.55-.141 1 .441 1s1.059-.45 1.059-1-.198-1-.441-1-.719.45-1.059 1m63.605 8.56c-1.842 4.092-3.713 7.44-4.158 7.44-.446 0-1.772-1.35-2.947-3s-2.72-3-3.433-3c-2.813 0-6.697 4.466-10.075 11.584-4.225 8.903-8.217 13.527-18.106 20.969-7.642 5.752-8.352 7.133-5.886 11.447 2.661 4.656 1.993 5.485-8.098 10.044C156.164 225.573 153 228.41 153 233.852c0 6.226 1.92 13.765 3.979 15.629 2.09 1.891 6.137 1.708 6.801-.307.363-1.1.077-1.102-1.675-.008-3.128 1.954-5.394.019-6.759-5.771-1.916-8.127-1.753-9.062 1.579-9.062 2.802 0 2.98.275 4.249 6.584 1.22 6.061 1.365 6.306 1.826 3.083.485-3.392.778-3.602 9.5-6.805 20.202-7.419 23.026-8.631 25.215-10.819 2.85-2.851 2.918-6.725.205-11.787-2.542-4.743-4.047-8.589-3.36-8.589.281 0 1.379 2.025 2.44 4.5s2.22 4.5 2.576 4.5c2.074 0 11.159-9.294 15.401-15.756 2.728-4.156 5.142-8.048 5.364-8.65.222-.602 1.945.369 3.829 2.156 1.884 1.787 4.393 3.25 5.577 3.25 2.549 0 5.832-4.093 10.025-12.5 3.207-6.428 8.27-21.503 8.163-24.302-.036-.934-1.533 2.802-3.327 8.302-5.111 15.666-11.693 27.5-15.295 27.5-.737 0-3.525-2.063-6.198-4.585-2.672-2.522-6.523-5.591-8.558-6.819-3.346-2.019-3.541-2.364-2.044-3.607 2.876-2.386 7.601-9.924 10.143-16.18 3.495-8.602 2.424-8.084-1.551.751M186 160c0 .55.45 1 1 1s1-.45 1-1-.45-1-1-1-1 .45-1 1m-144.296 8.328c-.28.731.807 3.289 2.415 5.684 1.609 2.395 2.78 4.835 2.602 5.421-.178.587-3.074 2.89-6.434 5.118l-6.111 4.05 3.162 5.95C40.277 200.082 53.758 215 55.818 215c.503 0 1.801-2.333 2.884-5.185 2.72-7.158 4.777-8.375 9.814-5.807 4.955 2.527 5.484 2.498 5.484-.292 0-1.455-1.042-2.9-2.868-3.979-5.903-3.487-14.113-12.749-17.733-20.004-5.133-10.29-10.219-15.25-11.695-11.405m165.079 1.422c-1.425 1.512-3.926 5.675-5.559 9.25-3.685 8.072-8.305 13.437-17.383 20.188-3.878 2.883-6.517 5.42-5.867 5.637.651.217 3.838-.35 7.081-1.26 7.239-2.032 12.383-.973 16.815 3.459l2.975 2.975 4.539-5.188c2.496-2.853 5.887-7.719 7.536-10.813l2.998-5.625-5.416-3.283c-8.12-4.921-8.253-5.245-4.533-11.042 3.081-4.801 3.291-7.048.659-7.048-.69 0-2.42 1.238-3.845 2.75m-28.033-.088c.688.278 1.813.278 2.5 0 .688-.277.125-.504-1.25-.504s-1.937.227-1.25.504M39.537 173.25c.831 2.784 4.17 6.377 5.079 5.467.762-.762-3.677-7.7-4.933-7.71-.45-.004-.515 1.005-.146 2.243m171.569 1.279c-1.317 1.934-2.066 3.843-1.665 4.243.914.913 5.559-4.374 5.559-6.328 0-2.37-1.354-1.645-3.894 2.085m-23.913 3.899c-2.809 2.397-6.309 5.304-7.777 6.46-2.214 1.741-2.457 2.358-1.421 3.606.687.828 1.996 1.506 2.909 1.506 2.15 0 13.096-11.049 13.096-13.22 0-3.123-1.699-2.712-6.807 1.648m-65.332-.369l-2.361 2.06 2.75-1.675c1.513-.921 2.75-1.847 2.75-2.059 0-.781-.835-.335-3.139 1.674m-14.611-.028c-2.668 1.072-2.989 2.975-.5 2.955 3.359-.026 6.25-1.23 6.25-2.603 0-1.556-2.389-1.703-5.75-.352M155.5 178c1.1.473 2.9.846 4 .83 1.608-.024 1.51-.186-.5-.83-3.419-1.095-6.048-1.095-3.5 0m-45.5 4.893c0 1.104 2.595 2.179 3.375 1.399.314-.314.331-.958.039-1.431-.702-1.136-3.414-1.111-3.414.032m6 18.536c0 7.591 1.248 8.571 10.916 8.571 8.548 0 11.567-1.673 10.914-6.05-.28-1.883-1.829-2.639-10.33-5.045-5.5-1.557-10.338-2.847-10.75-2.868-.412-.02-.75 2.406-.75 5.392m-51.077 2.852c-1.22 3.487 1.468 6.735 5.55 6.704 4.254-.032 4.838-1.605 1.353-3.648-3.32-1.948-6.758-3.469-6.903-3.056m118.672 2.219c-2.026 1.375-4.114 2.5-4.639 2.5-1.22 0-1.204 2.062.031 4 .828 1.3 1.526 1.195 5.234-.79 6.432-3.443 8.098-4.936 7.436-6.662-.865-2.253-3.86-1.9-8.062.952M77 207.059c0 .582.45.781 1 .441s1-.816 1-1.059-.45-.441-1-.441-1 .477-1 1.059m123.048 1.679c1.27 1.78 2.543 3.004 2.828 2.719.285-.285-.755-1.741-2.31-3.237l-2.828-2.72 2.31 3.238M57.76 215.101c-2.972 7.663-2.707 9.772 1.513 12.061 3.205 1.738 32.157 12.619 32.593 12.25.201-.171.672-1.796 1.045-3.611.584-2.835 1.048-3.257 3.289-2.992 1.435.17 2.933-.215 3.329-.856 1.423-2.302-5.227-6.966-18.529-12.995-7.425-3.366-14.932-7.208-16.683-8.539-1.751-1.33-3.326-2.411-3.5-2.402-.174.009-1.55 3.197-3.057 7.084m130.858-3.613c-1.035.784-7.721 4.032-14.859 7.219-13.555 6.051-20.709 10.946-19.309 13.212.491.795 1.855 1.07 3.59.723 2.619-.524 2.842-.301 3.479 3.468.547 3.242 1.002 3.889 2.331 3.319.907-.39 7.319-2.849 14.248-5.465 17.415-6.574 18.91-7.425 18.867-10.74-.033-2.535-2.833-8.929-2.945-6.724-.1 1.963-1.99-2.044-2.005-4.25-.017-2.592-.76-2.758-3.397-.762m-114.899.975c-1.467 1.073-1.525 1.398-.331 1.856.797.305 1.719-.155 2.053-1.025.826-2.153.38-2.368-1.722-.831m28.824 2.468c-.317.512-.169 1.182.327 1.489.497.307 1.208 2.184 1.581 4.171s.907 3.385 1.186 3.105c.28-.28.038-2.213-.537-4.296-.575-2.083-.879-3.955-.674-4.159.925-.926 13.295 6.353 17.533 10.317l4.705 4.402 2.895-3.021c3.422-3.572 10.427-8.199 15.828-10.456l3.863-1.614-.625 2.565c-1.609 6.605-1.482 7.587.332 2.566 1.093-3.025 1.999-5.613 2.015-5.75.015-.137-.66-.25-1.501-.25-2.9 0-13.065 5.83-18.173 10.422-2.817 2.533-5.274 4.194-5.46 3.691-.701-1.894-10.539-9.274-15.526-11.646-5.671-2.696-6.902-2.94-7.769-1.536m43.536 12.652c.048 1.165.285 1.402.604.605.289-.722.253-1.585-.079-1.917-.332-.332-.568.258-.525 1.312m-25.769 2.205c-.655.416-1.165 2.659-1.133 4.984.052 3.747.324 4.228 2.394 4.228 1.69 0 2.799-.976 4.013-3.536.923-1.944 1.394-3.819 1.047-4.166-.347-.347-.638.231-.646 1.285-.012 1.623-.204 1.546-1.25-.504-1.393-2.73-2.682-3.397-4.425-2.291m17.329 2.618c-3.212 4.212-3.244 4.59-.389 4.609 1.819.013 1.963.201.75.985-1.18.762-.943.973 1.109.985 2.44.014 2.602-.272 2.488-4.413-.066-2.436-.39-4.698-.719-5.028-.33-.329-1.787.959-3.239 2.862m-26.165 2.091c.024 4.097.244 4.497 2.476 4.5 1.906.002 2.183-.264 1.25-1.197-.66-.66-1.2-2.685-1.2-4.5 0-2.01-.499-3.3-1.276-3.3-.85 0-1.268 1.502-1.25 4.497M121 232.5c0 .825.45 1.5 1 1.5s1-.675 1-1.5-.45-1.5-1-1.5-1 .675-1 1.5m-10.732 10.588c-.084 1.125.368 1.605 1.208 1.283 1.618-.621 6.064 1.576 10.654 5.265 3.36 2.7 3.362 2.7.87.118-1.375-1.425-4.772-3.912-7.548-5.527-4.485-2.61-5.063-2.737-5.184-1.139m23.593 3.971l-2.361 2.06 2.75-1.675c1.512-.921 2.75-1.847 2.75-2.059 0-.781-.835-.335-3.139 1.674" fill="#1976D2" fill-rule="evenodd"/><path fill-opacity=".426" d="M122.152 16.885c-1.634 1.035-1.174 4.275.695 4.898 1.048.349 1.114.012.297-1.514-.752-1.405-.723-2.29.103-3.116 1.352-1.352.82-1.482-1.095-.268m5.063.865c.838.962 1.299 2.375 1.025 3.139-.306.85-.061 1.118.63.691 1.667-1.03 1.373-4.273-.452-4.973-2.549-.978-2.824-.717-1.203 1.143m6.595 1.75c-.319 2.733-.052 3.5 1.218 3.5 1.256 0 1.52-.719 1.162-3.16-.384-2.613-.181-3.051 1.173-2.531.9.346 1.637.192 1.637-.34 0-.533-1.076-.969-2.391-.969-1.987 0-2.459.59-2.799 3.5m-24.814-1.005c.682.822 1.014 2.358.738 3.413-.352 1.349.12 2.082 1.589 2.466 2.84.743 3.426-.106 1.198-1.735-1.204-.88-1.64-2.077-1.27-3.489.438-1.678.116-2.15-1.467-2.15-1.687 0-1.82.252-.788 1.495m5.965.902c.501 1.319.64 2.669.308 3-.331.332.485.567 1.814.524 1.329-.043 1.855-.306 1.167-.583-.687-.278-1.25-1.592-1.25-2.921 0-1.464-.582-2.417-1.475-2.417-1.144 0-1.271.539-.564 2.397m27.289-1.735c-1.588.641-1.617 3.571-.05 5.138 1.415 1.415 4.444 1.584 5.242.293.309-.498-.227-.718-1.191-.487-2.984.716-4.637-1.016-3.319-3.479.626-1.17 1.01-2.091.853-2.048-.157.043-.847.306-1.535.583m4.107.838c.825.825 1.812 1.5 2.194 1.5.382 0 .134-.675-.551-1.5s-1.672-1.5-2.194-1.5-.274.675.551 1.5m-41.607.162c1.492.603 1.666 3.963.25 4.838-.55.34-.986 1.154-.968 1.809.059 2.223 2.968-2.677 2.968-5 0-1.562-.566-2.283-1.75-2.23-1.045.047-1.247.282-.5.583m47.389 1.305c1.299 1.081 2.023 1.981 1.611 2-1.588.07 3.105 3.787 6.1 4.831 2.589.902 3.15.84 3.15-.35 0-.796.787-1.455 1.75-1.463 1.384-.012 1.462-.198.372-.889-.758-.48-1.101-1.322-.761-1.871.339-.548-.204-1.212-1.207-1.475-1.444-.377-1.735-.008-1.395 1.77.799 4.18-1.89 4.011-5.731-.362-2.009-2.287-4.237-4.158-4.951-4.158-.714 0-.236.885 1.062 1.967M98 19.491c0 1.21 3.159 6.684 3.602 6.241.66-.661-1.293-5.423-2.54-6.194-.584-.361-1.062-.382-1.062-.047m-3.541 1.576c-.363.586-.445 1.281-.183 1.543s.743-.218 1.069-1.067c.676-1.762.1-2.072-.886-.476m63.354-.384c.721.289 1.584.253 1.916-.079.332-.332-.258-.568-1.312-.525-1.165.048-1.402.285-.604.604M89.225 23.25c.883.688 1.8 2.15 2.036 3.25.391 1.822.497 1.844 1.191.25 1.121-2.574-.076-4.75-2.612-4.75-1.968 0-2.038.143-.615 1.25m6.74.292c-1.041 1.255-1.037 1.768.025 2.75 1.039.963 1.189.877.735-.42-.313-.896-.064-2.133.553-2.75S98.14 22 97.822 22c-.317 0-1.153.694-1.857 1.542M150 24c0 .55.45 1 1 1s1-.45 1-1-.45-1-1-1-1 .45-1 1m17.177 1.923c-.816 2.339-.719 3.039.484 3.5 2.159.829 2.339.741 1.731-.845-.3-.782-.046-2.357.566-3.5.887-1.656.821-2.078-.325-2.078-.791 0-1.896 1.315-2.456 2.923m-83.074.269c.645 1.205 1.448 3.214 1.785 4.465.37 1.376 1.063 1.991 1.754 1.558C89.126 31.286 86.099 24 84.23 24c-1.028 0-1.055.459-.127 2.192M172.306 28c-.864 2.29-.85 3 .062 3 .656 0 1.703-1.35 2.326-3 .864-2.29.85-3-.062-3-.656 0-1.703 1.35-2.326 3m-98.053-.178c-1.61 1.023.565 6.158 2.612 6.17 1.076.006 1.014-.528-.292-2.52-.911-1.391-1.386-2.966-1.056-3.5.722-1.168.4-1.206-1.264-.15m104.927 1.35c.176 1.194.995 2.353 1.82 2.576 1.333.359 1.333.276 0-.748-1.138-.875-1.197-1.275-.244-1.662 1.387-.562.715-2.338-.885-2.338-.555 0-.866.977-.691 2.172M67 28.969c0 .532.675.709 1.5.393.825-.317 1.5-.753 1.5-.969 0-.216-.675-.393-1.5-.393s-1.5.436-1.5.969m116.146 2.61c-.607 1.332-1.675 2.428-2.375 2.436-.876.011-.805.317.229.985 2.012 1.3 3 1.244 3-.171 0-.644.694-1.939 1.543-2.877 1.308-1.445 1.327-1.788.125-2.249-.861-.331-1.853.407-2.522 1.876M67.488 31.54c-1.093.884-1.448 1.337-.788 1.006 1.436-.721 3.676 3.037 2.726 4.574-.432.699.109.664 1.536-.1 1.958-1.047 2.042-1.366.751-2.85-.798-.918-1.628-2.248-1.844-2.955-.301-.985-.855-.91-2.381.325m120.307 3.494c-1.545 2.693-1.426 3.966.372 3.966.458 0 .833-.643.833-1.429 0-.785.663-2.092 1.474-2.902 1.144-1.144 1.19-1.584.205-1.962-.698-.268-1.995.779-2.884 2.327M63.169 33.895c-1.063.658-1.014 1.117.257 2.388.866.866 1.574 2.056 1.574 2.646 0 1.317 1.671 1.412 2.457.14.317-.512.087-1.233-.511-1.602-.597-.37-1.395-1.507-1.773-2.529-.452-1.22-1.138-1.577-2.004-1.043M194 36.072c0 .648-.71.87-1.641.512-1.333-.511-1.418-.36-.452.804.825.994.864 1.636.125 2.092-1.113.688-.483 2.52.867 2.52.429 0 1.304-1.15 1.945-2.556.64-1.406 1.613-2.28 2.16-1.941.548.338.996.379.996.091 0-.288-.9-1.005-2-1.594-1.457-.78-2-.76-2 .072M56.25 38.597C54.462 39.999 53 42.012 53 43.072 53 44.133 52.55 45 52 45s-1-.505-1-1.122c0-.807-.398-.792-1.413.05-1.197.993-1.082 1.519.75 3.432 1.585 1.655 2.526 1.986 3.523 1.236.903-.68.987-1.147.25-1.393-2.211-.737-1.048-2.226 1.281-1.641 1.315.33 2.691.114 3.059-.481.412-.667-.312-1.081-1.891-1.081-2.892 0-3.289-1.413-1.031-3.671 1.219-1.219 1.825-1.281 3-.306.81.672 1.472 1.897 1.472 2.722 0 1.231.274 1.273 1.525.234 1.31-1.087 1.328-1.493.131-2.872-.767-.884-1.566-2.158-1.776-2.832-.253-.816-1.464-.375-3.63 1.322m142.75.724c0 .861-.933 2.219-2.073 3.018-1.373.961-1.694 1.687-.949 2.147.618.383 2.185-.449 3.482-1.848 1.988-2.145 2.137-2.728.949-3.714-1.11-.921-1.409-.837-1.409.397m3.329 5.602l-2.171 2.703 3.171 2.459 3.171 2.459 2.132-2.191 2.131-2.19-3.131-2.971-3.132-2.972-2.171 2.703M85.373 46.265C80.592 51.436 77.607 56.04 74.522 63c-4.175 9.42-5.489 16.131-5.506 28.138-.028 18.769 5.959 33.787 18.655 46.8 3.456 3.542 6.587 6.137 6.957 5.767.371-.37-1.791-3.043-4.803-5.939-7.502-7.213-12.24-14.698-16.015-25.302-2.924-8.212-3.196-10.013-3.239-21.464-.04-10.484.327-13.629 2.274-19.5 2.704-8.154 6.697-15.476 12.321-22.591 4.564-5.773 4.699-7.503.207-2.644M163 43.589c0 .323 1.961 2.83 4.358 5.57 8.191 9.364 14.591 25.566 14.627 37.032.008 2.58.534 5.012 1.169 5.404.854.528.972-1.081.454-6.191-.941-9.293-3.072-17.194-6.655-24.681C172.755 51.949 163 39.971 163 43.589m40.965 2.953c-.974 1.174-1.002 1.821-.115 2.708 1.43 1.43 4.782-1.419 3.709-3.154-.935-1.514-2.086-1.371-3.594.446m7.035-.779c0 1.097 4.843 5.739 5.382 5.158.214-.232-.909-1.687-2.496-3.234S211 45.274 211 45.763M42.098 50.382c-.953 1.148-.696 1.929 1.288 3.913l2.478 2.478 2.068-2.201C49.069 53.362 50 51.838 50 51.186c0-1.532-3.66-1.545-4.605-.016-.486.787-.178.961.941.531 1.111-.426 1.664-.123 1.664.914 0 2.13-2.257 1.21-3.605-1.471-.938-1.863-1.287-1.979-2.297-.762m50.991 4.368c-9.1 10.629-13.104 22.035-13.063 37.21.03 10.971 2.268 18.949 7.985 28.458 3.8 6.319 12.226 14.589 14.847 14.571 1.076-.007.436-.953-1.858-2.744-23.338-18.226-26.623-54.084-6.928-75.633C96.782 53.646 99 50.945 99 50.61c0-1.707-2.262-.123-5.911 4.14M154 50.409c0 .431 1.744 2.766 3.876 5.188C165.375 64.116 171 77.811 171 87.549c0 1.898.502 3.451 1.115 3.451 1.485 0 .301-9.443-2.199-17.536-2.095-6.784-7.976-16.401-12.78-20.901-1.725-1.615-3.136-2.585-3.136-2.154m57.165 2.915c-2.685 2.859-1.739 4.288 1.093 1.65 1.125-1.047 2.539-1.609 3.143-1.247.605.361.481-.104-.273-1.035-1.692-2.086-1.36-2.139-3.963.632M196.5 58c3.266 3.3 6.162 6 6.437 6 .275 0-2.171-2.7-5.437-6-3.266-3.3-6.162-6-6.437-6-.275 0 2.171 2.7 5.437 6m-139.568-.25C51.206 63.93 48.623 67 49.148 67c.273 0 3.081-2.925 6.239-6.5 6.177-6.992 7.258-8.916 1.545-2.75m-19.886-1.305c-1.619 1.95-.934 5.961 1.083 6.345 2.025.386 4.892-2.364 4.808-4.611-.046-1.201-.321-1.039-.968.571-1.118 2.781-4.969 3.094-4.969.403 0-1.016 1.013-2.336 2.25-2.933 1.612-.777 1.788-1.104.622-1.152-.895-.038-2.167.582-2.826 1.377m62.456 6.685c-4.543 5.028-7.947 12.302-9.621 20.558-2.591 12.771 2.337 28.217 12.044 37.752 2.766 2.717 5.334 4.635 5.707 4.262.372-.373-1.407-2.513-3.955-4.755-2.997-2.638-5.899-6.64-8.218-11.333-7.602-15.381-5.112-34.137 6.192-46.65 1.97-2.18 3.132-3.964 2.582-3.964-.55 0-2.679 1.858-4.731 4.13M148 59.629c0 .346 1.556 2.35 3.457 4.455 1.901 2.104 4.406 5.688 5.567 7.964 2.161 4.235 5.161 17.433 4.185 18.41-.298.298-.017.542.624.542 1.784 0 1.401-6.032-.844-13.299C159.034 71.371 151.104 59 149.002 59c-.551 0-1.002.283-1.002.629m71.148 1.506c-.707 1.132-1.9 1.79-2.694 1.486-1.18-.453-1.213-.208-.193 1.426.678 1.085 1.384 1.518 1.569.963.744-2.233 2.175-.812 2.256 2.24l.086 3.25.871-2.914c.48-1.603.608-3.341.286-3.862-.322-.521-.056-1.275.59-1.674.879-.543.838-1.007-.163-1.837-1.022-.849-1.638-.631-2.608.922M32.229 63.74c-.699.243-1.974 1.8-2.833 3.46-.858 1.661-1.142 2.761-.63 2.445.512-.317 1.86.29 2.995 1.347 2.042 1.902 2.081 1.898 3.572-.377 2.158-3.294 2.466-6.115.667-6.115-.825 0-1.725-.27-2-.6-.275-.33-1.072-.402-1.771-.16m-1.591 2.76c-.341.888-.01 1.5.81 1.5.762 0 1.562.53 1.778 1.177.529 1.589 2.774.098 2.774-1.843 0-.965-.565-1.331-1.5-.972-.825.316-1.5.139-1.5-.393 0-1.521-1.723-1.133-2.362.531m76.103 4.25c-7.443 7.772-9.697 23.607-4.793 33.673 2.461 5.053 9.743 13.22 10.823 12.139.332-.332-1.231-2.507-3.475-4.833-5.724-5.935-7.545-10.097-8.089-18.489-.551-8.488 1.105-13.875 6.393-20.804 3.76-4.925 3.233-5.96-.859-1.686M142 68.559c0 .307 1.415 2.319 3.144 4.47 3.378 4.204 6.893 13.184 6.321 16.152-.193 1.001.074 1.819.592 1.819 2.996 0-.747-13.105-5.535-19.382-2.459-3.225-4.522-4.62-4.522-3.059m80.739 2.33c-.272 1.039-.106 2.502.368 3.25.636 1.003.866.785.878-.83.019-2.804 1.68-3.832 3.607-2.233 2.293 1.903 1.382 5.441-1.375 5.341-1.402-.051-1.925.275-1.356.844 1.606 1.606 4.623.328 4.969-2.104.647-4.543-5.976-8.529-7.091-4.268M25.6 73.734c-.978.978-.682 2.435.364 1.789.529-.328 1.845.286 2.922 1.363 1.704 1.704 2.038 1.755 2.56.394.331-.862.478-1.636.328-1.721-2.243-1.265-5.709-2.29-6.174-1.825m111.013 1.084c-.311.503.386 1.762 1.549 2.798 2.556 2.278 4.838 7.395 4.838 10.852 0 1.393.45 2.532 1 2.532 1.698 0 1.092-4.261-1.351-9.5-2.47-5.3-5.095-8.205-6.036-6.682m-23.837 1.932c-3.261 3.718-4.936 8.548-4.909 14.151.033 7.035 1.349 10.659 5.391 14.849 4.461 4.625 5.689 4.04 1.425-.679-7.01-7.759-7.465-19.422-1.056-27.04 2.652-3.151 1.848-4.36-.851-1.281m-89.248 1.204c-.324.525-.315 2.048.021 3.386.681 2.713 3.408 2.648 5.668-.135 1.109-1.365 1.012-1.476-.717-.818-3.475 1.323-4.002 1.17-3.921-1.137.087-2.459-.151-2.752-1.051-1.296m207.603 1.742c-.753.811-2.216 1.253-3.252.983-1.035-.271-1.631-.087-1.324.409.564.914 7.452.832 7.428-.088-.052-1.924-1.613-2.638-2.852-1.304M20.6 84.6c-.85 2.216-.771 2.403.771 1.811.754-.289 2.051.153 2.881.984.83.83 1.788 1.231 2.129.891.876-.876.771-3.329-.131-3.074-.413.117-1.718-.324-2.9-.981-1.77-.983-2.256-.918-2.75.369m211.922.007c-1.08.791-2.517 1.225-3.192.966-.769-.295-1.009.101-.641 1.058.395 1.031 1.276 1.317 2.699.877 1.162-.359 2.675-.695 3.362-.747 1.42-.107 1.546-.747.478-2.426-.549-.863-1.249-.793-2.706.272m-213.82 5.727c-.402 1.048-.001 1.295 1.475.909 1.144-.299 2.442.078 2.979.864.73 1.069.878.928.638-.607-.372-2.368-4.286-3.265-5.092-1.166m213.965.333c-1.21 1.209-.694 6.066.774 7.284 1.238 1.028 1.28.769.295-1.84-1.223-3.239-.251-5.539 1.303-3.082.687 1.086.934 1.128.946.162.009-.78.52-1.005 1.265-.558.849.51.81.209-.122-.941-1.421-1.751-3.303-2.184-4.461-1.025m-101.206 4.376c-1.519 1.678-1.56 1.932-.232 1.423.889-.341 1.862-1.261 2.162-2.043.747-1.947.248-1.787-1.93.62m105.799.505c-.788.855-.877 1.571-.243 1.963.548.338 1.275-.107 1.614-.991.826-2.153.155-2.629-1.371-.972M16.771 96.774c-.347 1.335.231 1.752 2.555 1.841 1.652.063 3.604.936 4.339 1.941.734 1.004 1.335 1.327 1.335.717s.275-1.826.611-2.703c.466-1.212.185-1.429-1.173-.908-1.425.547-1.645.319-1.089-1.13.577-1.504.447-1.607-.762-.604-1.051.872-2.006.918-3.413.165-1.559-.834-2.044-.697-2.403.681m132.479-1.031c4.262.188 11.238.188 15.5 0 4.262-.187.775-.341-7.75-.341s-12.012.154-7.75.341M127 99.893c0 1.591.579 3.115 1.286 3.386.935.359 1.178-.431.891-2.893-.483-4.129-2.177-4.514-2.177-.493m12.111 3.218c-.616 1.767-.945 3.388-.731 3.602.214.214.893-1.057 1.509-2.824.616-1.767.945-3.388.731-3.602-.214-.214-.893 1.057-1.509 2.824m93.499-2.289c-.852 1.378 1.399 2.858 5.14 3.379 2.786.388 3.239.156 3.171-1.624-.043-1.142-.306-1.514-.583-.827-.695 1.721-3.33 1.567-5.41-.315-.989-.896-1.981-1.158-2.318-.613m-216.943 1.845c-.367.366-.667 1.116-.667 1.666 0 .55.271.729.603.398.331-.332 1.643-.208 2.915.276 1.657.63 2.458.498 2.828-.466.305-.796-.373-1.582-1.665-1.929-2.812-.754-3.211-.748-4.014.055m111.528 3.833c.02 1.65.244 2.204.498 1.231.254-.973.237-2.323-.037-3-.274-.677-.481.119-.461 1.769m-109.88 1.422c.22 2.885 2.176 3.846 3.073 1.509.45-1.173.214-1.492-.814-1.098-.841.323-1.657-.155-1.946-1.138-.276-.942-.415-.619-.313.727m-3.315-.04c0 .55.45 1.278 1 1.618.55.34 1 .168 1-.382s-.45-1.278-1-1.618c-.55-.34-1-.168-1 .382M130.109 110c.018 1.925.374 4.376.793 5.446.721 1.842.794 1.825 1.354-.316.325-1.245-.032-3.696-.793-5.446l-1.385-3.184.031 3.5m104.895-1.332c-.002.643-.305 1.993-.674 3-.646 1.767-.597 1.768 1.389.028 1.131-.992 3.008-1.875 4.169-1.963 3.723-.28 2.389-2.605-1.384-2.412-1.922.098-3.497.705-3.5 1.347M130.176 126.04c-6.403 16.078-8.81 23.387-6.246 18.96 1.433-2.475 14.127-36.276 13.761-36.642-.186-.187-3.568 7.77-7.515 17.682m21.092-12.411c-7.509 4.743-7.474 4.67-4.405 9.263.77 1.151 1.449 1.022 3.938-.75 1.654-1.178 3.216-2.142 3.47-2.142.503 0 5.729 7.67 5.729 8.408 0 .247-3.375 2.553-7.5 5.124-4.125 2.571-7.5 5.078-7.5 5.572 0 1.385.429 1.2 8.341-3.604 4.077-2.475 7.657-4.5 7.956-4.5.299 0 2.683 2.914 5.299 6.477 3.677 5.008 5.052 6.23 6.064 5.391 1.047-.87.673-1.97-1.878-5.522-1.752-2.44-3.77-4.921-4.484-5.514-2.269-1.883-1.415-3.238 4.465-7.084l5.737-3.753 3.55 4.113 3.55 4.114 1.848-5.436c1.988-5.851 1.872-6.358-2.701-11.718l-2.752-3.228-3.748 2.254c-2.061 1.239-3.895 2.361-4.077 2.493-.181.132.387 1.334 1.264 2.672 1.573 2.401 1.518 2.485-4.311 6.574l-5.905 4.142-2.609-3.421c-3.071-4.026-3.218-5.135-.859-6.485 4.516-2.586 4.558-2.669 2.74-5.443-.946-1.444-2.231-2.612-2.855-2.596-.624.017-4.39 2.086-8.367 4.599M10 115.059c0 1.132.384 1.822.854 1.531.469-.29 1.318.492 1.885 1.737.758 1.664.682 2.744-.287 4.069-.725.992-1.686 1.578-2.135 1.302-.45-.277-.93 1.141-1.068 3.149l-.252 3.653 2.596-4.313c2.429-4.037 2.688-4.196 4.056-2.5 1.347 1.671 1.375 1.636.366-.447-.93-1.917-.71-2.618 1.444-4.615C18.857 117.33 20 115.528 20 114.62c0-1.172-.861-.703-2.964 1.614l-2.963 3.266-1.256-3.25c-1.421-3.677-2.817-4.268-2.817-1.191m226 .25c0 .965.64 1.999 1.423 2.3.782.3 1.687 1.236 2.011 2.08.412 1.074.136 1.36-.923.954-1.093-.42-1.511.093-1.511 1.857 0 1.756.42 2.276 1.5 1.862.825-.317 1.5-.133 1.5.409 0 .541-.675 1.544-1.5 2.229s-1.476 1.977-1.448 2.872c.041 1.259.408 1.118 1.622-.622.864-1.238 1.98-2.25 2.48-2.25.501 0 1.317 1.012 1.815 2.25.612 1.523.925 1.724.968.622.034-.895-.612-2.187-1.437-2.872-.825-.685-1.5-1.92-1.5-2.745 0-1.283.244-1.301 1.687-.127 1.485 1.208 1.605 1.153 1-.46-.378-1.007-.687-2.271-.687-2.809 0-.537-.45-.699-1-.359-.55.34-1-.057-1-.882s.45-1.778 1-2.118c.55-.34.971-1.379.937-2.309-.046-1.225-.313-1.071-.968.559-1.143 2.843-2.435 2.851-4.412.027-1.306-1.864-1.557-1.939-1.557-.468m-108.746 8.895c-.05 3.083.016 3.148 1.014 1.013.721-1.542.738-2.611.053-3.296-.685-.685-1.031.055-1.067 2.283M17.015 126.75c.009.412.452 1.425.985 2.25.784 1.213.972 1.069.985-.75.008-1.237-.435-2.25-.985-2.25s-.993.338-.985.75m102.39 5.5l-1.905 2.25 2.25-1.905c2.114-1.79 2.705-2.595 1.905-2.595-.19 0-1.202 1.012-2.25 2.25m-5.822 7.393c-.918 2.394-.202 2.578 1.213.312.672-1.075.815-1.955.319-1.955-.495 0-1.185.739-1.532 1.643m-.462 7.398c-2.408 2.177-4.027 3.959-3.597 3.959 1.125 0 9.408-6.358 9.445-7.25.062-1.499-1.557-.588-5.848 3.291m7.079 4.159c-1.627 1.627-1.516 3.8.194 3.8.859 0 1.339-.96 1.25-2.499-.079-1.375-.166-2.5-.194-2.5-.028-.001-.59.539-1.25 1.199m17.015 3.381c-.762 1.361-1.7 1.431-6.734.5-3.216-.594-6.291-1.081-6.831-1.081-1.296 0 .061 1.332 1.629 1.599 14.039 2.392 20.696 3.555 27.721 4.842 8.35 1.529 14.804 2.03 13.849 1.074-.267-.266-4.055-.952-8.417-1.522-11.795-1.544-12.71-1.826-11.989-3.705.344-.895.047-1.995-.659-2.443-2.224-1.411-7.628-.947-8.569.736m-33.418 2.425c-.937 1.647-1.387 2.987-1 2.979 1.084-.024 3.825-1.952 2.798-1.97-.498-.008-.09-.915.905-2.015 1.379-1.524 1.475-1.998.405-1.994-.773.004-2.172 1.354-3.108 3m36.016-2.323c.721.289 1.584.253 1.916-.079.332-.332-.258-.568-1.312-.525-1.165.048-1.402.285-.604.604m-27.161 2.833c-2.429.993-2.108 1.104 3.068 1.064 3.179-.024 7.355.338 9.28.805 1.974.479 3.138.471 2.67-.018-1.656-1.729-12.152-3.022-15.018-1.851M129 160c0 .55.675 1 1.5 1s1.5-.45 1.5-1-.675-1-1.5-1-1.5.45-1.5 1m-29 2.188c-2.475 1.126-4.018 2.23-3.429 2.453 1.323.502 8.062-2.238 8.92-3.626.886-1.433-.333-1.173-5.491 1.173m33-1.257c0 .653.386.949.858.657.471-.292 2.384-.088 4.25.452 1.865.54 5.171 1.21 7.346 1.488s5.72.98 7.878 1.561c2.431.655 4.278.701 4.857.122.579-.579-2.415-1.542-7.877-2.534-15.831-2.873-17.312-3.022-17.312-1.746m55.607 1.651c-.957 2.493-.716 4.162.679 4.697.935.359 1.178-.431.891-2.893-.444-3.797-.695-4.086-1.57-1.804M102.5 166c-1.928.829-1.921.862.191.93 1.205.038 2.469-.38 2.809-.93.731-1.183-.248-1.183-3 0m57.5 0c-.901.582-1.025.975-.309.985.655.008 1.469-.435 1.809-.985.767-1.242.421-1.242-1.5 0m-62.187 1.683c.721.289 1.584.253 1.916-.079.332-.332-.258-.568-1.312-.525-1.165.048-1.402.285-.604.604m9 0c.721.289 1.584.253 1.916-.079.332-.332-.258-.568-1.312-.525-1.165.048-1.402.285-.604.604M47 168.378c0 .207.788.995 1.75 1.75 1.586 1.243 1.621 1.208.378-.378-1.307-1.666-2.128-2.195-2.128-1.372m63.575.743c.298.483 1.905.879 3.57.879 3.897 0 15.855 3.175 15.855 4.209 0 .435.477.791 1.059.791s.785-.443.45-.985c-.374-.606.66-.788 2.691-.473 6.482 1.005-.479-1.242-7.989-2.579-4.008-.713-6.867-1.559-6.351-1.88.515-.321-1.485-.641-4.446-.712-2.961-.072-5.138.266-4.839.75M183 176.098a5506.075 5506.075 0 01-16.845 12.663c-3.489 2.606-7.824 5.977-9.632 7.489-1.808 1.512-3.735 2.75-4.283 2.75-.733 0-64.454-17.448-82.74-22.655-3.955-1.126-.014 1.387 5 3.189 5.197 1.867 7.826 3.466 5.7 3.466-.66 0-1.2.45-1.2 1 0 1.345 3.709 1.279 4.55-.081.379-.614 1.81-.809 3.309-.452 3.482.83 17.399 6.511 18.513 7.557.479.451 1.492.582 2.25.291s1.378.044 1.378.745c0 .7.284.989.631.642.348-.347 1.573.028 2.723.833 2.71 1.899 4.743 1.881 4.008-.035-.701-1.826-.856-1.823 5.206-.09 2.713.776 7.47 2.124 10.572 2.996 4.176 1.174 5.603 2.031 5.5 3.302-.077.943.647 1.878 1.61 2.077 1.078.223 1.75-.242 1.75-1.212 0-1.903-.458-1.898 5.725-.062 3.702 1.099 5.803 1.239 7.716.511 1.446-.549 3.155-.892 3.798-.76.644.131 1.201-.437 1.24-1.262.038-.825.841-1.438 1.784-1.363.944.075 1.488-.231 1.21-.681-.694-1.123 3.613-4.021 4.844-3.26.546.337.702.144.349-.428-.8-1.293 1.889-3.661 3.221-2.838.536.332 1.3.076 1.698-.568.483-.781.288-.901-.585-.362-.848.524-1.067.418-.622-.302.377-.611 1.425-.827 2.328-.481 1.245.478 1.483.217.984-1.084-.446-1.161-.21-1.62.733-1.423 2.009.419 17.378-12.283 18.159-15.007.362-1.263.492-2.461.288-2.662-.203-.201-5.095 3.199-10.87 7.557M142 170c-.825.533-1.05.969-.5.969s1.675-.436 2.5-.969c.825-.533 1.05-.969.5-.969s-1.675.436-2.5.969m16 0c0 .55.477 1 1.059 1s.781-.45.441-1-.816-1-1.059-1-.441.45-.441 1m-12 1c-.825.533-1.05.969-.5.969s1.675-.436 2.5-.969c.825-.533 1.05-.969.5-.969s-1.675.436-2.5.969m-108.426 1.181c-.843 1.929 3.01 7.819 5.114 7.819.722 0 1.312.477 1.312 1.059s.45.781 1 .441c1.653-1.021 1.129-2.5-.885-2.5-1.964 0-4.558-3.173-5.347-6.542-.408-1.742-.539-1.773-1.194-.277m177.426.537c0 3.015-3.004 6.514-5.117 5.962-1.156-.303-1.883.027-1.883.855 0 2.783 1.999 2.399 5.443-1.045 3.578-3.578 4.408-5.846 2.557-6.99-.55-.34-1 .208-1 1.218M169 176c-.825.533-1.05.969-.5.969s1.675-.436 2.5-.969c.825-.533 1.05-.969.5-.969s-1.675.436-2.5.969m-30.187.683c.721.289 1.584.253 1.916-.079.332-.332-.258-.568-1.312-.525-1.165.048-1.402.285-.604.604m4 1c.721.289 1.584.253 1.916-.079.332-.332-.258-.568-1.312-.525-1.165.048-1.402.285-.604.604m8.845.766c-.371.967-.076 1.265.887.895.794-.304 1.195-.956.89-1.449-.766-1.24-1.132-1.126-1.777.554m-3.845.234c.721.289 1.584.253 1.916-.079.332-.332-.258-.568-1.312-.525-1.165.048-1.402.285-.604.604M111 183c0 .55.477 1 1.059 1s.781-.45.441-1-.816-1-1.059-1-.441.45-.441 1m54.25-.311c.963.252 2.537.252 3.5 0 .963-.251.175-.457-1.75-.457s-2.713.206-1.75.457M33.872 187.75c-1.243 1.586-1.208 1.621.378.378.962-.755 1.75-1.543 1.75-1.75 0-.823-.821-.294-2.128 1.372M218 186.378c0 .207.787.995 1.75 1.75 1.586 1.243 1.621 1.208.378-.378-1.307-1.666-2.128-2.195-2.128-1.372M28.924 192.75L26.5 195.5l2.75-2.424c2.57-2.266 3.209-3.076 2.424-3.076-.179 0-1.416 1.238-2.75 2.75M224 192.5c1.292 1.375 2.574 2.5 2.849 2.5.275 0-.557-1.125-1.849-2.5-1.292-1.375-2.574-2.5-2.849-2.5-.275 0 .557 1.125 1.849 2.5M65.5 195c.995 1.1 2.035 2 2.31 2 .275 0-.315-.9-1.31-2-.995-1.1-2.035-2-2.31-2-.275 0 .315.9 1.31 2m118.734 2.385c-7.733 6.237-8.706 7.673-1.528 2.252 5.222-3.943 8.361-6.847 7.103-6.569-.17.038-2.679 1.98-5.575 4.317m-160.421-1.702c.721.289 1.584.253 1.916-.079.332-.332-.258-.568-1.312-.525-1.165.048-1.402.285-.604.604m205 0c.721.289 1.584.253 1.916-.079.332-.332-.258-.568-1.312-.525-1.165.048-1.402.285-.604.604M69 197.378c0 .207.787.995 1.75 1.75 1.586 1.243 1.621 1.208.378-.378-1.307-1.666-2.128-2.195-2.128-1.372m4.862 3.907c.749.929 1.092 2.394.761 3.254-.377.984-.193 1.313.496.888 1.72-1.063-.046 3.857-1.911 5.323-2.147 1.687-3.154 1.58-6.958-.739-3.832-2.336-4.358-5.658-1-6.305 1.954-.377 1.893-.452-.465-.57-1.762-.088-3.08.546-3.755 1.809-.872 1.629-.512 2.339 2.214 4.374 5.716 4.266 7.677 4.986 9.527 3.5 5.603-4.5 6.401-8.617 2.229-11.498-2.288-1.579-2.385-1.582-1.138-.036m135.084 4.465l-3.446 3.75 3.75-3.446c3.49-3.208 4.21-4.054 3.446-4.054-.167 0-1.854 1.688-3.75 3.75M46.5 208c2.709 2.75 5.15 5 5.425 5 .275 0-1.716-2.25-4.425-5-2.709-2.75-5.15-5-5.425-5-.275 0 1.716 2.25 4.425 5m135.5-3.391c-2.475.776-5.086 1.187-5.802.912-.716-.274-1.027-.053-.691.49.925 1.497 6.854 1.183 9.052-.479 2.516-1.903 7.069-1.943 7.788-.069.339.883-.709 2.523-2.643 4.134-2.513 2.095-2.632 2.328-.552 1.078l2.653-1.593 2.755 5.709c1.515 3.14 2.774 7.232 2.797 9.094.038 3.008.15 3.145 1.005 1.231.726-1.628.393-3.369-1.36-7.111-1.276-2.725-2.418-6.204-2.537-7.73-.12-1.526-.564-3.675-.988-4.775-.611-1.585-.508-1.757.498-.828.698.644 1.794.97 2.435.724 1.499-.575 7.21 5.335 6.13 6.344-.448.418-1.013.204-1.256-.477-.763-2.134-4.085-5.79-4.702-5.175-.621.617 1.194 6.853 2.383 8.191.381.428 1.922-.189 3.425-1.371l2.732-2.149-2.311-2.475c-5.028-5.384-11.639-6.551-20.811-3.675m-114-.179c0 .275.9.981 2 1.57 1.1.589 2 .845 2 .57s-.9-.981-2-1.57c-1.1-.589-2-.845-2-.57m-12.046 11.656c-.614 1.147-.928 2.274-.697 2.504.23.23.932-.708 1.559-2.086 1.378-3.024.707-3.35-.862-.418m96.391 8.457c-.326.849-.369 1.767-.096 2.04.274.273.737-.422 1.03-1.543.624-2.383-.069-2.751-.934-.497M194 228c-.901.582-1.025.975-.309.985.655.008 1.469-.435 1.809-.985.767-1.242.421-1.242-1.5 0m-44.4 5.6c-.967 3.067-1.578 5.756-1.358 5.976.22.22 1.191-2.109 2.158-5.176.967-3.067 1.578-5.756 1.358-5.976-.22-.22-1.191 2.109-2.158 5.176m-37.149.385c.027 2.192.499 4.16 1.049 4.373.604.234.861-1.343.649-3.985-.438-5.469-1.764-5.772-1.698-.388m6.878-2.399c-.434 1.131.084 2.33 1.504 3.48 2.792 2.261 2.759 3.231-.083 2.454-1.991-.545-2.043-.486-.448.511 2.636 1.648 4.878-.567 4.499-4.446-.227-2.326-.856-3.164-2.555-3.405-1.423-.202-2.499.317-2.917 1.406M129 233c-1.175 1.65-1.656 3-1.068 3 .587 0 1.068-.45 1.068-1s.408-1 .906-1c.499 0 .671.9.384 2-.293 1.118-.031 2 .593 2 .636 0 1.117-1.721 1.117-4 0-2.2-.194-4-.432-4-.237 0-1.393 1.35-2.568 3m8.529.25c-1.81 3.093-1.812 3.177-.054 1.75 1.725-1.401 1.813-1.318 1.325 1.25-.363 1.909-.106 2.75.839 2.75.946 0 1.361-1.37 1.361-4.5 0-5.337-.891-5.658-3.471-1.25m-16.835-1.611c-.799.799.104 2.361 1.365 2.361.518 0 .941-.675.941-1.5 0-1.546-1.18-1.987-2.306-.861m32.306-.261c0 .207.787.995 1.75 1.75 1.586 1.243 1.621 1.208.378-.378-1.307-1.666-2.128-2.195-2.128-1.372M103.624 236c.686 3.967 2.35 7.631 2.27 5-.026-.825-.683-3.075-1.461-5l-1.415-3.5.606 3.5m42.455 9.583c.048 1.165.285 1.402.604.605.289-.722.253-1.585-.079-1.917-.332-.332-.568.258-.525 1.312M107 246.941c0 .518.445 1.216.989 1.552.566.35.734-.051.393-.941-.665-1.732-1.382-2.049-1.382-.611M144.5 249c.34.55.816 1 1.059 1s.441-.45.441-1-.477-1-1.059-1-.781.45-.441 1" fill="#1976D2" fill-rule="evenodd"/></svg>